<?xml version="1.0" standalone="no"?>
<!DOCTYPE svg PUBLIC "-//W3C//DTD SVG 1.1//EN" 
  "http://www.w3.org/Graphics/SVG/1.1/DTD/svg11.dtd">
<svg width="1024" height="1024" viewBox="0 0 1024 1024"
     xmlns="http://www.w3.org/2000/svg" version="1.1">
<desc>'foot.blend', Foot, (Blender 2.73 (sub 0))</desc>
<polygon stroke="black" stroke-width="1" fill="grey" fill-opacity="0.25" points="205.870,661.939 552.956,444.700 139.129,584.719 " />
<polygon stroke="black" stroke-width="1" fill="grey" fill-opacity="0.25" points="98.891,663.303 1.685,788.861 100.476,787.601 " />
<polygon stroke="black" stroke-width="1" fill="grey" fill-opacity="0.25" points="1.685,788.861 98.891,663.303 0.100,664.562 " />
<polygon stroke="black" stroke-width="1" fill="grey" fill-opacity="0.25" points="770.081,745.358 590.596,555.664 207.454,786.237 " />
<polygon stroke="black" stroke-width="1" fill="grey" fill-opacity="0.25" points="205.870,661.939 100.476,787.601 207.454,786.237 " />
<polygon stroke="black" stroke-width="1" fill="grey" fill-opacity="0.25" points="100.476,787.601 205.870,661.939 98.891,663.303 " />
<polygon stroke="black" stroke-width="1" fill="grey" fill-opacity="0.25" points="518.405,329.779 701.759,520.489 632.148,289.786 " />
<polygon stroke="black" stroke-width="1" fill="grey" fill-opacity="0.25" points="701.759,520.489 518.405,329.779 552.956,444.700 " />
<polygon stroke="black" stroke-width="1" fill="grey" fill-opacity="0.25" points="701.759,520.489 552.956,444.700 590.596,555.664 " />
<polygon stroke="black" stroke-width="1" fill="grey" fill-opacity="0.25" points="736.646,278.043 557.477,63.014 632.148,289.786 " />
<polygon stroke="black" stroke-width="1" fill="grey" fill-opacity="0.25" points="557.477,63.014 736.646,278.043 663.547,31.557 " />
<polygon stroke="black" stroke-width="1" fill="grey" fill-opacity="0.25" points="185.892,421.822 22.204,395.077 109.269,495.536 " />
<polygon stroke="black" stroke-width="1" fill="grey" fill-opacity="0.25" points="22.204,395.077 185.892,421.822 110.615,322.027 " />
<polygon stroke="black" stroke-width="1" fill="grey" fill-opacity="0.25" points="701.759,520.489 736.646,278.043 632.148,289.786 " />
<polygon stroke="black" stroke-width="1" fill="grey" fill-opacity="0.25" points="736.646,278.043 701.759,520.489 803.596,366.463 " />
<polygon stroke="black" stroke-width="1" fill="grey" fill-opacity="0.25" points="803.596,366.463 701.759,520.489 784.038,470.162 " />
<polygon stroke="black" stroke-width="1" fill="grey" fill-opacity="0.25" points="109.269,495.536 518.405,329.779 185.892,421.822 " />
<polygon stroke="black" stroke-width="1" fill="grey" fill-opacity="0.25" points="736.646,278.043 769.616,0.100 663.547,31.557 " />
<polygon stroke="black" stroke-width="1" fill="grey" fill-opacity="0.25" points="769.616,0.100 736.646,278.043 842.716,246.586 " />
<polygon stroke="black" stroke-width="1" fill="grey" fill-opacity="0.25" points="868.473,983.021 770.081,884.629 770.081,1023.900 " />
<polygon stroke="black" stroke-width="1" fill="grey" fill-opacity="0.25" points="770.081,884.629 868.473,983.021 909.352,884.629 " />
<polygon stroke="black" stroke-width="1" fill="grey" fill-opacity="0.25" points="770.081,884.629 909.352,884.629 868.473,786.237 " />
<polygon stroke="black" stroke-width="1" fill="grey" fill-opacity="0.25" points="770.081,884.629 868.473,786.237 770.081,745.358 " />
<polygon stroke="black" stroke-width="1" fill="grey" fill-opacity="0.25" points="590.596,555.664 552.956,444.700 205.870,661.939 " />
<polygon stroke="black" stroke-width="1" fill="grey" fill-opacity="0.25" points="886.058,430.186 876.936,707.238 978.956,667.261 " />
<polygon stroke="black" stroke-width="1" fill="grey" fill-opacity="0.25" points="876.936,707.238 886.058,430.186 784.038,470.162 " />
<polygon stroke="black" stroke-width="1" fill="grey" fill-opacity="0.25" points="876.936,707.238 701.759,520.489 770.081,745.358 " />
<polygon stroke="black" stroke-width="1" fill="grey" fill-opacity="0.25" points="701.759,520.489 876.936,707.238 784.038,470.162 " />
<polygon stroke="black" stroke-width="1" fill="grey" fill-opacity="0.25" points="590.596,555.664 205.870,661.939 207.454,786.237 " />
<polygon stroke="black" stroke-width="1" fill="grey" fill-opacity="0.25" points="701.759,520.489 590.596,555.664 770.081,745.358 " />
<polygon stroke="black" stroke-width="1" fill="grey" fill-opacity="0.25" points="770.081,745.358 166.575,884.629 770.081,884.629 " />
<polygon stroke="black" stroke-width="1" fill="grey" fill-opacity="0.25" points="166.575,884.629 770.081,745.358 207.454,786.237 " />
<polygon stroke="black" stroke-width="1" fill="grey" fill-opacity="0.25" points="770.081,884.629 264.966,1023.899 770.081,1023.900 " />
<polygon stroke="black" stroke-width="1" fill="grey" fill-opacity="0.25" points="264.966,1023.899 770.081,884.629 166.575,983.020 " />
<polygon stroke="black" stroke-width="1" fill="grey" fill-opacity="0.25" points="166.575,983.020 770.081,884.629 166.575,884.629 " />
<polygon stroke="black" stroke-width="1" fill="grey" fill-opacity="0.25" points="518.405,329.779 557.477,63.014 110.615,322.027 " />
<polygon stroke="black" stroke-width="1" fill="grey" fill-opacity="0.25" points="557.477,63.014 518.405,329.779 632.148,289.786 " />
<polygon stroke="black" stroke-width="1" fill="grey" fill-opacity="0.25" points="518.405,329.779 110.615,322.027 185.892,421.822 " />
<polygon stroke="black" stroke-width="1" fill="grey" fill-opacity="0.25" points="109.269,495.536 552.956,444.700 518.405,329.779 " />
<polygon stroke="black" stroke-width="1" fill="grey" fill-opacity="0.25" points="552.956,444.700 109.269,495.536 139.129,584.719 " />

</svg>
