solid Untitled-54c4219e
facet normal 0.106443369882712 -0.256198808825658 0.960745533096213
  outer loop
    vertex 0.198697005513424 -1.13619700551342 -0.25
    vertex 1.37614364348337e-015 -0.281250000000001 0.0
    vertex -6.76791955811495e-017 -1.21875 -0.25
  endloop
endfacet
facet normal 0.0 -1.0 0.0
  outer loop
    vertex -6.76791955811495e-017 -1.21875 -0.25
    vertex -0.19869700551342 -1.21875 -0.5
    vertex -6.76791955811495e-017 -1.21875 -0.5
  endloop
endfacet
facet normal 0.0 -1.0 0.0
  outer loop
    vertex -0.19869700551342 -1.21875 -0.5
    vertex -6.76791955811495e-017 -1.21875 -0.25
    vertex -0.19869700551342 -1.21875 -0.25
  endloop
endfacet
facet normal 0.996543298086715 -0.0724061346697628 -0.0407284507517474
  outer loop
    vertex 0.28125 0.0 -0.5
    vertex 0.281250000000002 -0.281250000000001 0.0
    vertex 0.198697005513424 -1.13619700551342 -0.5
  endloop
endfacet
facet normal 0.383674959861055 -0.92346820474536 0.0
  outer loop
    vertex 0.198697005513424 -1.13619700551342 -0.25
    vertex -6.76791955811495e-017 -1.21875 -0.5
    vertex 0.198697005513424 -1.13619700551342 -0.5
  endloop
endfacet
facet normal 0.383674959861055 -0.92346820474536 0.0
  outer loop
    vertex -6.76791955811495e-017 -1.21875 -0.5
    vertex 0.198697005513424 -1.13619700551342 -0.25
    vertex -6.76791955811495e-017 -1.21875 -0.25
  endloop
endfacet
facet normal -0.0 -0.0 1.0
  outer loop
    vertex -0.281249999999998 -0.281250000000001 0.0
    vertex 0.28125 0.0 0.0
    vertex -0.28125 0.0 0.0
  endloop
endfacet
facet normal -0.0 -0.0 1.0
  outer loop
    vertex 0.28125 0.0 0.0
    vertex -0.281249999999998 -0.281250000000001 0.0
    vertex 1.37614364348337e-015 -0.281250000000001 0.0
  endloop
endfacet
facet normal -0.0 -0.0 1.0
  outer loop
    vertex 0.28125 0.0 0.0
    vertex 1.37614364348337e-015 -0.281250000000001 0.0
    vertex 0.281250000000002 -0.281250000000001 0.0
  endloop
endfacet
facet normal -0.923468204745355 0.383674959861066 0.0
  outer loop
    vertex -0.19869700551342 0.19869700551342 0.0
    vertex -0.28125 0.0 -0.5
    vertex -0.28125 0.0 0.0
  endloop
endfacet
facet normal -0.923468204745355 0.383674959861066 0.0
  outer loop
    vertex -0.28125 0.0 -0.5
    vertex -0.19869700551342 0.19869700551342 0.0
    vertex -0.19869700551342 0.19869700551342 -0.5
  endloop
endfacet
facet normal -0.923468204745356 -0.383674959861065 0.0
  outer loop
    vertex -0.28125 -1.02005299448658 -0.25
    vertex -0.19869700551342 -1.21875 -0.5
    vertex -0.19869700551342 -1.21875 -0.25
  endloop
endfacet
facet normal -0.923468204745356 -0.383674959861065 0.0
  outer loop
    vertex -0.19869700551342 -1.21875 -0.5
    vertex -0.28125 -1.02005299448658 -0.25
    vertex -0.28125 -1.02005299448658 -0.5
  endloop
endfacet
facet normal -0.0 -0.0 1.0
  outer loop
    vertex 0.28125 0.0 0.0
    vertex -0.19869700551342 0.19869700551342 0.0
    vertex -0.28125 0.0 0.0
  endloop
endfacet
facet normal -0.0 -0.0 1.0
  outer loop
    vertex -0.19869700551342 0.19869700551342 0.0
    vertex 0.28125 0.0 0.0
    vertex -6.76791955811495e-017 0.28125 0.0
  endloop
endfacet
facet normal -0.0 -0.0 1.0
  outer loop
    vertex -6.76791955811495e-017 0.28125 0.0
    vertex 0.28125 0.0 0.0
    vertex 0.198697005513422 0.19869700551342 0.0
  endloop
endfacet
facet normal -0.610832736644147 -0.25378375184925 0.749984783273061
  outer loop
    vertex -0.19869700551342 -1.21875 -0.25
    vertex -0.281249999999998 -0.281250000000001 0.0
    vertex -0.28125 -1.02005299448658 -0.25
  endloop
endfacet
facet normal -0.383674959861067 0.923468204745355 -0.0
  outer loop
    vertex -0.19869700551342 0.19869700551342 0.0
    vertex -6.76791955811495e-017 0.28125 -0.5
    vertex -0.19869700551342 0.19869700551342 -0.5
  endloop
endfacet
facet normal -0.383674959861067 0.923468204745355 -0.0
  outer loop
    vertex -6.76791955811495e-017 0.28125 -0.5
    vertex -0.19869700551342 0.19869700551342 0.0
    vertex -6.76791955811495e-017 0.28125 0.0
  endloop
endfacet
facet normal 0.0 0.0 -1.0
  outer loop
    vertex -0.19869700551342 0.19869700551342 -0.5
    vertex -6.76791955811495e-017 0.0 -0.5
    vertex -0.28125 0.0 -0.5
  endloop
endfacet
facet normal 0.0 0.0 -1.0
  outer loop
    vertex -6.76791955811495e-017 0.0 -0.5
    vertex -0.19869700551342 0.19869700551342 -0.5
    vertex -6.76791955811495e-017 0.28125 -0.5
  endloop
endfacet
facet normal 0.0 0.0 -1.0
  outer loop
    vertex -6.76791955811495e-017 0.0 -0.5
    vertex -6.76791955811495e-017 0.28125 -0.5
    vertex 0.198697005513422 0.19869700551342 -0.5
  endloop
endfacet
facet normal 0.0 0.0 -1.0
  outer loop
    vertex -6.76791955811495e-017 0.0 -0.5
    vertex 0.198697005513422 0.19869700551342 -0.5
    vertex 0.28125 0.0 -0.5
  endloop
endfacet
facet normal 3.77056580428811e-017 -0.280662571924958 0.959806501707749
  outer loop
    vertex 0.281250000000002 -0.281250000000001 0.0
    vertex 1.37614364348337e-015 -0.281250000000001 0.0
    vertex 0.198697005513424 -1.13619700551342 -0.25
  endloop
endfacet
facet normal 0.383674959861064 0.923468204745356 -0.0
  outer loop
    vertex -6.76791955811495e-017 0.28125 0.0
    vertex 0.198697005513422 0.19869700551342 -0.5
    vertex -6.76791955811495e-017 0.28125 -0.5
  endloop
endfacet
facet normal 0.383674959861064 0.923468204745356 -0.0
  outer loop
    vertex 0.198697005513422 0.19869700551342 -0.5
    vertex -6.76791955811495e-017 0.28125 0.0
    vertex 0.198697005513422 0.19869700551342 0.0
  endloop
endfacet
facet normal 0.923468204745359 0.383674959861058 -0.0
  outer loop
    vertex 0.198697005513422 0.19869700551342 -0.5
    vertex 0.28125 0.0 0.0
    vertex 0.28125 0.0 -0.5
  endloop
endfacet
facet normal 0.923468204745359 0.383674959861058 -0.0
  outer loop
    vertex 0.28125 0.0 0.0
    vertex 0.198697005513422 0.19869700551342 -0.5
    vertex 0.198697005513422 0.19869700551342 0.0
  endloop
endfacet
facet normal 0.995370508823397 -0.0961121749033489 -0.0
  outer loop
    vertex 0.281250000000002 -0.281250000000001 0.0
    vertex 0.198697005513424 -1.13619700551342 -0.25
    vertex 0.198697005513424 -1.13619700551342 -0.5
  endloop
endfacet
facet normal 1.0 1.02671846333477e-014 -0.0
  outer loop
    vertex 0.28125 0.0 0.0
    vertex 0.281250000000002 -0.281250000000001 0.0
    vertex 0.28125 0.0 -0.5
  endloop
endfacet
facet normal 0.0 0.0 -1.0
  outer loop
    vertex 0.28125 0.0 -0.5
    vertex -6.76791955811495e-017 -1.21875 -0.5
    vertex -6.76791955811495e-017 0.0 -0.5
  endloop
endfacet
facet normal 0.0 0.0 -1.0
  outer loop
    vertex -6.76791955811495e-017 -1.21875 -0.5
    vertex 0.28125 0.0 -0.5
    vertex 0.198697005513424 -1.13619700551342 -0.5
  endloop
endfacet
facet normal 0.0 0.0 -1.0
  outer loop
    vertex -6.76791955811495e-017 0.0 -0.5
    vertex -0.28125 -1.02005299448658 -0.5
    vertex -0.28125 0.0 -0.5
  endloop
endfacet
facet normal 0.0 0.0 -1.0
  outer loop
    vertex -0.28125 -1.02005299448658 -0.5
    vertex -6.76791955811495e-017 0.0 -0.5
    vertex -0.19869700551342 -1.21875 -0.5
  endloop
endfacet
facet normal 0.0 0.0 -1.0
  outer loop
    vertex -0.19869700551342 -1.21875 -0.5
    vertex -6.76791955811495e-017 0.0 -0.5
    vertex -6.76791955811495e-017 -1.21875 -0.5
  endloop
endfacet
facet normal -1.0 -3.62693519799616e-016 1.71178189757336e-015
  outer loop
    vertex -0.281249999999998 -0.281250000000001 0.0
    vertex -0.28125 0.0 -0.5
    vertex -0.28125 -1.02005299448658 -0.5
  endloop
endfacet
facet normal -1.0 -3.62693519799616e-016 1.71178189757336e-015
  outer loop
    vertex -0.28125 0.0 -0.5
    vertex -0.281249999999998 -0.281250000000001 0.0
    vertex -0.28125 0.0 0.0
  endloop
endfacet
facet normal -1.0 1.95427312807238e-015 1.89234001956609e-030
  outer loop
    vertex -0.281249999999998 -0.281250000000001 0.0
    vertex -0.28125 -1.02005299448658 -0.5
    vertex -0.28125 -1.02005299448658 -0.25
  endloop
endfacet
facet normal -2.80767097321045e-017 -0.257662650560333 0.966234939601246
  outer loop
    vertex -0.19869700551342 -1.21875 -0.25
    vertex 1.37614364348337e-015 -0.281250000000001 0.0
    vertex -0.281249999999998 -0.281250000000001 0.0
  endloop
endfacet
facet normal -2.80767097321045e-017 -0.257662650560333 0.966234939601246
  outer loop
    vertex 1.37614364348337e-015 -0.281250000000001 0.0
    vertex -0.19869700551342 -1.21875 -0.25
    vertex -6.76791955811495e-017 -1.21875 -0.25
  endloop
endfacet
endsolid Untitled-54c4219e
