ply
format ascii 1.0
comment Created by Blender 2.73 (sub 0) - www.blender.org, source file: 'foot.blend'
element vertex 35
property float x
property float y
property float z
property float nx
property float ny
property float nz
property float s
property float t
element face 40
property list uchar uint vertex_indices
end_header
0.198697 -1.136197 -0.250000 0.669912 -0.549577 0.499130 0.201045 0.353576
0.000000 -0.281250 0.000000 0.003754 -0.135014 0.990814 0.539996 0.565723
-0.000000 -1.218750 -0.250000 0.157140 -0.803919 0.573534 0.135868 0.428985
-0.000000 -1.218750 -0.250000 0.157140 -0.803919 0.573534 0.096573 0.352244
-0.198697 -1.218750 -0.500000 -0.443709 -0.664815 -0.600909 0.001645 0.229628
-0.000000 -1.218750 -0.500000 0.145970 -0.731864 -0.665609 0.098121 0.230858
-0.198697 -1.218750 -0.250000 -0.456465 -0.727866 0.511643 0.000098 0.351014
0.281250 0.000000 -0.500000 0.736991 0.128361 -0.663564 0.752033 0.272111
0.281250 -0.281250 0.000000 0.691397 -0.133641 0.709983 0.576754 0.457359
0.198697 -1.136197 -0.500000 0.640187 -0.469405 -0.608081 0.202592 0.232190
-0.281250 -0.281250 0.000000 -0.679067 -0.096652 0.727653 0.506255 0.677950
0.281250 0.000000 0.000000 0.731864 0.145970 0.665609 0.685311 0.491710
-0.281250 0.000000 0.000000 -0.731864 0.145970 0.665609 0.617332 0.717006
-0.198697 0.198697 0.000000 -0.548875 0.548875 0.630421 0.719381 0.728474
-0.281250 0.000000 -0.500000 -0.731864 0.145970 -0.665609 0.544411 0.938463
-0.198697 0.198697 -0.500000 -0.548875 0.548875 -0.630421 0.647995 0.969183
-0.281250 -1.020053 -0.250000 -0.903592 -0.231758 0.360271 0.181535 0.588064
-0.198697 -1.218750 -0.500000 -0.443709 -0.664815 -0.600909 0.021684 0.614183
-0.198697 -1.218750 -0.250000 -0.456465 -0.727866 0.511643 0.106708 0.516078
-0.281250 -1.020053 -0.500000 -0.731864 -0.145970 -0.665609 0.108022 0.685521
-0.000000 0.281250 0.000000 0.000000 0.776513 0.630085 0.784762 0.642126
0.198697 0.198697 0.000000 0.548875 0.548875 0.630421 0.765662 0.540857
-0.000000 0.281250 -0.500000 0.000000 0.776513 -0.630085 0.751579 0.999902
-0.000000 0.281250 0.000000 0.000000 0.776513 0.630085 0.822965 0.759193
-0.198697 0.198697 -0.500000 -0.548875 0.548875 -0.630421 0.848118 0.040019
-0.000000 0.000000 -0.500000 0.000000 0.000000 -1.000000 0.752033 0.136104
-0.281250 0.000000 -0.500000 -0.731864 0.145970 -0.665609 0.752033 0.000098
-0.000000 0.281250 -0.500000 0.000000 0.776513 -0.630085 0.888039 0.136104
0.198697 0.198697 -0.500000 0.548875 0.548875 -0.630421 0.848118 0.232190
-0.000000 0.281250 0.000000 0.000000 0.776513 0.630085 0.865291 0.579897
0.198697 0.198697 -0.500000 0.548875 0.548875 -0.630421 0.856382 0.309338
-0.000000 0.281250 -0.500000 0.000000 0.776513 -0.630085 0.956012 0.348378
-0.000000 -1.218750 -0.500000 0.145970 -0.731864 -0.665609 0.162671 0.136105
-0.281250 -1.020053 -0.500000 -0.731864 -0.145970 -0.665609 0.258756 0.000098
-0.198697 -1.218750 -0.500000 -0.443709 -0.664815 -0.600909 0.162671 0.040019
3 0 1 2
3 3 4 5
3 4 3 6
3 7 8 9
3 0 5 9
3 5 0 3
3 10 11 12
3 11 10 1
3 11 1 8
3 13 14 12
3 14 13 15
3 16 17 18
3 17 16 19
3 11 13 12
3 13 11 20
3 20 11 21
3 18 10 16
3 13 22 15
3 22 13 23
3 24 25 26
3 25 24 27
3 25 27 28
3 25 28 7
3 8 1 0
3 29 30 31
3 30 29 21
3 30 11 7
3 11 30 21
3 8 0 9
3 11 8 7
3 7 32 25
3 32 7 9
3 25 33 26
3 33 25 34
3 34 25 32
3 10 14 19
3 14 10 12
3 10 19 16
3 18 1 10
3 1 18 2
