solid fullwall.stl
facet normal 0.0 0.0 -1.0
  outer loop
    vertex 0.6 0.1 0.0
    vertex -0.6 -0.1 0.0
    vertex -0.6 0.1 0.0
  endloop
endfacet
facet normal 0.0 0.0 -1.0
  outer loop
    vertex -0.6 -0.1 0.0
    vertex 0.6 0.1 0.0
    vertex 0.6 -0.1 0.0
  endloop
endfacet
facet normal 0.0 0.0 1.0
  outer loop
    vertex 0.6 -0.1 1.0
    vertex -0.6 0.1 1.0
    vertex -0.6 -0.1 1.0
  endloop
endfacet
facet normal 0.0 0.0 1.0
  outer loop
    vertex -0.6 0.1 1.0
    vertex 0.6 -0.1 1.0
    vertex 0.6 0.1 1.0
  endloop
endfacet
facet normal 1.0 0.0 0.0
  outer loop
    vertex 0.6 0.1 0.0
    vertex 0.6 -0.1 1.0
    vertex 0.6 -0.1 0.0
  endloop
endfacet
facet normal 1.0 0.0 0.0
  outer loop
    vertex 0.6 -0.1 1.0
    vertex 0.6 0.1 0.0
    vertex 0.6 0.1 1.0
  endloop
endfacet
facet normal 0.0 1.0 0.0
  outer loop
    vertex -0.6 0.1 1.0
    vertex 0.6 0.1 0.0
    vertex -0.6 0.1 0.0
  endloop
endfacet
facet normal 0.0 1.0 0.0
  outer loop
    vertex 0.6 0.1 0.0
    vertex -0.6 0.1 1.0
    vertex 0.6 0.1 1.0
  endloop
endfacet
facet normal -1.0 0.0 0.0
  outer loop
    vertex -0.6 0.1 1.0
    vertex -0.6 -0.1 0.0
    vertex -0.6 -0.1 1.0
  endloop
endfacet
facet normal -1.0 0.0 0.0
  outer loop
    vertex -0.6 -0.1 0.0
    vertex -0.6 0.1 1.0
    vertex -0.6 0.1 0.0
  endloop
endfacet
facet normal 0.0 -1.0 0.0
  outer loop
    vertex 0.6 -0.1 1.0
    vertex -0.6 -0.1 0.0
    vertex 0.6 -0.1 0.0
  endloop
endfacet
facet normal 0.0 -1.0 0.0
  outer loop
    vertex -0.6 -0.1 0.0
    vertex 0.6 -0.1 1.0
    vertex -0.6 -0.1 1.0
  endloop
endfacet
endsolid fullwall.stl
