solid Untitled-54c4208b
facet normal -2.20076327385971e-016 1.0 -1.15442895244718e-014
  outer loop
    vertex -0.17677669529665 4.33146851719357e-015 0.062499999999999
    vertex 0.0 0.0 -0.0625
    vertex -0.17677669529665 4.33146851719357e-015 -0.0625000000000014
  endloop
endfacet
facet normal -2.20076327385971e-016 1.0 -1.15442895244718e-014
  outer loop
    vertex 0.0 0.0 -0.0625
    vertex 0.19822330470335 4.33146851719357e-015 0.062499999999999
    vertex 0.19822330470335 4.33146851719357e-015 -0.0625000000000014
  endloop
endfacet
facet normal -2.20076327385971e-016 1.0 -1.15442895244718e-014
  outer loop
    vertex 0.19822330470335 4.33146851719357e-015 0.062499999999999
    vertex 0.0 0.0 -0.0625
    vertex -0.17677669529665 4.33146851719357e-015 0.062499999999999
  endloop
endfacet
facet normal 1.0 -5.10468460167286e-015 1.53140538050179e-014
  outer loop
    vertex -0.17677669529664 -0.30177669529664 -0.364276695296638
    vertex -0.176776695296644 -0.213388347648313 -0.099111652351676
    vertex -0.176776695296641 -0.390165042944957 -0.275888347648319
  endloop
endfacet
facet normal 1.0 -5.10468460167286e-015 1.53140538050179e-014
  outer loop
    vertex -0.176776695296644 -0.213388347648313 -0.099111652351676
    vertex -0.17677669529664 -0.30177669529664 -0.364276695296638
    vertex -0.176776695296641 -0.124999999999994 -0.187499999999995
  endloop
endfacet
facet normal -0.577350269189616 1.67574264740821e-014 0.816496580927733
  outer loop
    vertex -0.176776695296645 -0.0517766952966347 0.062499999999999
    vertex -0.301776695296649 -0.140165042944955 -0.0258883476483183
    vertex -0.176776695296654 -0.374999999999993 0.062499999999999
  endloop
endfacet
facet normal -8.77299074465842e-016 2.47683809694486e-015 -1.0
  outer loop
    vertex -0.176776695296648 -0.249999999999988 -0.0625000000000014
    vertex 0.198223304703356 -0.349111652351677 -0.0625000000000014
    vertex -0.17677669529665 -0.349111652351677 -0.0625000000000014
  endloop
endfacet
facet normal -8.77299074465842e-016 2.47683809694486e-015 -1.0
  outer loop
    vertex 0.198223304703356 -0.349111652351677 -0.0625000000000014
    vertex -0.176776695296648 -0.249999999999988 -0.0625000000000014
    vertex 0.0 0.0 -0.0625
  endloop
endfacet
facet normal -8.77299074465842e-016 2.47683809694486e-015 -1.0
  outer loop
    vertex 0.198223304703356 -0.349111652351677 -0.0625000000000014
    vertex 0.0 0.0 -0.0625
    vertex 0.19822330470335 4.33146851719357e-015 -0.0625000000000014
  endloop
endfacet
facet normal 1.92509711875266e-015 -1.0 0.0
  outer loop
    vertex 0.198223304703357 -0.614276695296632 -0.150888347648319
    vertex -0.17677669529665 -0.614276695296633 -0.364276695296638
    vertex 0.198223304703357 -0.614276695296632 -0.364276695296638
  endloop
endfacet
facet normal 1.92509711875266e-015 -1.0 0.0
  outer loop
    vertex -0.17677669529665 -0.614276695296633 -0.364276695296638
    vertex 0.198223304703357 -0.614276695296632 -0.150888347648319
    vertex -0.17677669529665 -0.614276695296633 -0.150888347648319
  endloop
endfacet
facet normal -0.637951972751011 -0.544526069377322 -0.544526069377378
  outer loop
    vertex -0.301776695296649 -0.140165042944955 -0.0258883476483183
    vertex -0.176776695296648 -0.249999999999988 -0.0625000000000014
    vertex -0.176776695296654 -0.374999999999993 0.062499999999999
  endloop
endfacet
facet normal -0.637951972751011 -0.544526069377322 -0.544526069377378
  outer loop
    vertex -0.176776695296648 -0.249999999999988 -0.0625000000000014
    vertex -0.301776695296649 -0.140165042944955 -0.0258883476483183
    vertex -0.176776695296644 -0.213388347648313 -0.099111652351676
  endloop
endfacet
facet normal 2.59317977765406e-017 -0.707106781186553 -0.707106781186542
  outer loop
    vertex -0.176776695296641 -0.390165042944957 -0.275888347648319
    vertex -0.301776695296649 -0.30177669529664 -0.364276695296638
    vertex -0.17677669529664 -0.30177669529664 -0.364276695296638
  endloop
endfacet
facet normal 2.59317977765406e-017 -0.707106781186553 -0.707106781186542
  outer loop
    vertex -0.301776695296649 -0.30177669529664 -0.364276695296638
    vertex -0.176776695296641 -0.390165042944957 -0.275888347648319
    vertex -0.30177669529665 -0.390165042944957 -0.275888347648319
  endloop
endfacet
facet normal -1.0 1.47657707000852e-016 9.69895923138745e-017
  outer loop
    vertex -0.301776695296649 -0.140165042944955 -0.0258883476483183
    vertex -0.301776695296649 -0.30177669529664 -0.364276695296638
    vertex -0.30177669529665 -0.390165042944957 -0.275888347648319
  endloop
endfacet
facet normal -1.0 1.47657707000852e-016 9.69895923138745e-017
  outer loop
    vertex -0.301776695296649 -0.30177669529664 -0.364276695296638
    vertex -0.301776695296649 -0.140165042944955 -0.0258883476483183
    vertex -0.30177669529665 -0.0883883476483164 -0.150888347648319
  endloop
endfacet
facet normal -6.79989363917016e-016 0.707106781186545 -0.70710678118655
  outer loop
    vertex 0.198223304703356 -0.349111652351677 -0.0625000000000014
    vertex -0.17677669529665 -0.489276695296632 -0.202665042944956
    vertex -0.17677669529665 -0.349111652351677 -0.0625000000000014
  endloop
endfacet
facet normal -6.79989363917016e-016 0.707106781186545 -0.70710678118655
  outer loop
    vertex -0.17677669529665 -0.489276695296632 -0.202665042944956
    vertex 0.198223304703356 -0.349111652351677 -0.0625000000000014
    vertex 0.198223304703356 -0.489276695296631 -0.202665042944956
  endloop
endfacet
facet normal 1.0 1.20052181493036e-014 -1.93531289700442e-015
  outer loop
    vertex 0.198223304703357 -0.489276695296631 -0.364276695296638
    vertex 0.198223304703357 -0.614276695296632 -0.150888347648319
    vertex 0.198223304703357 -0.614276695296632 -0.364276695296638
  endloop
endfacet
facet normal 1.0 1.20052181493036e-014 -1.93531289700442e-015
  outer loop
    vertex 0.198223304703357 -0.614276695296632 -0.150888347648319
    vertex 0.198223304703357 -0.489276695296631 -0.364276695296638
    vertex 0.198223304703356 -0.489276695296631 -0.202665042944956
  endloop
endfacet
facet normal 1.0 1.20052181493036e-014 -1.93531289700442e-015
  outer loop
    vertex 0.198223304703357 -0.614276695296632 -0.150888347648319
    vertex 0.198223304703356 -0.489276695296631 -0.202665042944956
    vertex 0.198223304703356 -0.400888347648314 0.062499999999999
  endloop
endfacet
facet normal 1.0 1.20052181493036e-014 -1.93531289700442e-015
  outer loop
    vertex 0.198223304703356 -0.400888347648314 0.062499999999999
    vertex 0.198223304703356 -0.489276695296631 -0.202665042944956
    vertex 0.198223304703356 -0.349111652351677 -0.0625000000000014
  endloop
endfacet
facet normal 1.0 1.20052181493036e-014 -1.93531289700442e-015
  outer loop
    vertex 0.198223304703356 -0.400888347648314 0.062499999999999
    vertex 0.198223304703356 -0.349111652351677 -0.0625000000000014
    vertex 0.19822330470335 4.33146851719357e-015 0.062499999999999
  endloop
endfacet
facet normal 1.0 1.20052181493036e-014 -1.93531289700442e-015
  outer loop
    vertex 0.19822330470335 4.33146851719357e-015 0.062499999999999
    vertex 0.198223304703356 -0.349111652351677 -0.0625000000000014
    vertex 0.19822330470335 4.33146851719357e-015 -0.0625000000000014
  endloop
endfacet
facet normal 1.4162190834564e-015 -0.707106781186545 0.70710678118655
  outer loop
    vertex -0.176776695296641 -0.390165042944957 -0.275888347648319
    vertex -0.301776695296649 -0.140165042944955 -0.0258883476483183
    vertex -0.30177669529665 -0.390165042944957 -0.275888347648319
  endloop
endfacet
facet normal 1.4162190834564e-015 -0.707106781186545 0.70710678118655
  outer loop
    vertex -0.301776695296649 -0.140165042944955 -0.0258883476483183
    vertex -0.176776695296641 -0.390165042944957 -0.275888347648319
    vertex -0.176776695296644 -0.213388347648313 -0.099111652351676
  endloop
endfacet
facet normal -1.92509711875267e-015 1.0 -8.78492964599251e-030
  outer loop
    vertex -0.17677669529665 -0.489276695296632 -0.202665042944956
    vertex 0.198223304703357 -0.489276695296631 -0.364276695296638
    vertex -0.176776695296649 -0.489276695296632 -0.364276695296638
  endloop
endfacet
facet normal -1.92509711875267e-015 1.0 -8.78492964599251e-030
  outer loop
    vertex 0.198223304703357 -0.489276695296631 -0.364276695296638
    vertex -0.17677669529665 -0.489276695296632 -0.202665042944956
    vertex 0.198223304703356 -0.489276695296631 -0.202665042944956
  endloop
endfacet
facet normal 0.0 0.0 -1.0
  outer loop
    vertex -0.176776695296649 -0.489276695296632 -0.364276695296638
    vertex 0.198223304703357 -0.614276695296632 -0.364276695296638
    vertex -0.17677669529665 -0.614276695296633 -0.364276695296638
  endloop
endfacet
facet normal 0.0 0.0 -1.0
  outer loop
    vertex 0.198223304703357 -0.614276695296632 -0.364276695296638
    vertex -0.176776695296649 -0.489276695296632 -0.364276695296638
    vertex 0.198223304703357 -0.489276695296631 -0.364276695296638
  endloop
endfacet
facet normal -1.0 -9.75995070325368e-014 -9.03023594417372e-030
  outer loop
    vertex -0.17677669529665 4.33146851719357e-015 -0.0625000000000014
    vertex -0.176776695296645 -0.0517766952966347 0.062499999999999
    vertex -0.17677669529665 4.33146851719357e-015 0.062499999999999
  endloop
endfacet
facet normal -0.0 -0.0 1.0
  outer loop
    vertex -0.17677669529665 -0.400888347648314 0.062499999999999
    vertex -0.176776695296645 -0.0517766952966347 0.062499999999999
    vertex -0.176776695296654 -0.374999999999993 0.062499999999999
  endloop
endfacet
facet normal -0.0 -0.0 1.0
  outer loop
    vertex -0.176776695296645 -0.0517766952966347 0.062499999999999
    vertex -0.17677669529665 -0.400888347648314 0.062499999999999
    vertex 0.198223304703356 -0.400888347648314 0.062499999999999
  endloop
endfacet
facet normal -0.0 -0.0 1.0
  outer loop
    vertex -0.176776695296645 -0.0517766952966347 0.062499999999999
    vertex 0.198223304703356 -0.400888347648314 0.062499999999999
    vertex 0.19822330470335 4.33146851719357e-015 0.062499999999999
  endloop
endfacet
facet normal -0.0 -0.0 1.0
  outer loop
    vertex 0.19822330470335 4.33146851719357e-015 0.062499999999999
    vertex -0.17677669529665 4.33146851719357e-015 0.062499999999999
    vertex -0.176776695296645 -0.0517766952966347 0.062499999999999
  endloop
endfacet
facet normal -0.67859834454585 0.678598344545836 0.28108463771484
  outer loop
    vertex -0.176776695296645 -0.0517766952966347 0.062499999999999
    vertex -0.30177669529665 -0.0883883476483164 -0.150888347648319
    vertex -0.301776695296649 -0.140165042944955 -0.0258883476483183
  endloop
endfacet
facet normal -0.67859834454585 0.678598344545836 0.28108463771484
  outer loop
    vertex -0.30177669529665 -0.0883883476483164 -0.150888347648319
    vertex -0.176776695296645 -0.0517766952966347 0.062499999999999
    vertex -0.17677669529665 4.33146851719357e-015 -0.0625000000000014
  endloop
endfacet
facet normal 0.707106781186523 -0.500000000000034 -0.5
  outer loop
    vertex -0.176776695296644 -0.213388347648313 -0.099111652351676
    vertex 0.0 0.0 -0.0625
    vertex -0.176776695296648 -0.249999999999988 -0.0625000000000014
  endloop
endfacet
facet normal 0.707106781186523 -0.500000000000034 -0.5
  outer loop
    vertex 0.0 0.0 -0.0625
    vertex -0.176776695296644 -0.213388347648313 -0.099111652351676
    vertex -0.176776695296641 -0.124999999999994 -0.187499999999995
  endloop
endfacet
facet normal -1.0 5.92221450460191e-015 -7.55119972599069e-015
  outer loop
    vertex -0.17677669529665 -0.400888347648314 0.062499999999999
    vertex -0.17677669529665 -0.614276695296633 -0.364276695296638
    vertex -0.17677669529665 -0.614276695296633 -0.150888347648319
  endloop
endfacet
facet normal -1.0 5.92221450460191e-015 -7.55119972599069e-015
  outer loop
    vertex -0.17677669529665 -0.614276695296633 -0.364276695296638
    vertex -0.17677669529665 -0.400888347648314 0.062499999999999
    vertex -0.17677669529665 -0.489276695296632 -0.202665042944956
  endloop
endfacet
facet normal -1.0 5.92221450460191e-015 -7.55119972599069e-015
  outer loop
    vertex -0.17677669529665 -0.489276695296632 -0.202665042944956
    vertex -0.17677669529665 -0.400888347648314 0.062499999999999
    vertex -0.17677669529665 -0.349111652351677 -0.0625000000000014
  endloop
endfacet
facet normal -1.0 5.92221450460191e-015 -7.55119972599069e-015
  outer loop
    vertex -0.17677669529665 -0.349111652351677 -0.0625000000000014
    vertex -0.17677669529665 -0.400888347648314 0.062499999999999
    vertex -0.176776695296654 -0.374999999999993 0.062499999999999
  endloop
endfacet
facet normal -1.0 5.92221450460191e-015 -7.55119972599069e-015
  outer loop
    vertex -0.17677669529665 -0.349111652351677 -0.0625000000000014
    vertex -0.176776695296654 -0.374999999999993 0.062499999999999
    vertex -0.176776695296648 -0.249999999999988 -0.0625000000000014
  endloop
endfacet
facet normal -1.0 5.92221450460191e-015 -7.55119972599069e-015
  outer loop
    vertex -0.176776695296649 -0.489276695296632 -0.364276695296638
    vertex -0.17677669529665 -0.614276695296633 -0.364276695296638
    vertex -0.17677669529665 -0.489276695296632 -0.202665042944956
  endloop
endfacet
facet normal 9.69624234957937e-015 0.70710678118654 -0.707106781186555
  outer loop
    vertex 0.0 0.0 -0.0625
    vertex -0.176776695296641 -0.124999999999994 -0.187499999999995
    vertex -0.17677669529665 4.33146851719357e-015 -0.0625000000000014
  endloop
endfacet
facet normal 9.69624234957937e-015 0.70710678118654 -0.707106781186555
  outer loop
    vertex -0.17677669529665 4.33146851719357e-015 -0.0625000000000014
    vertex -0.301776695296649 -0.30177669529664 -0.364276695296638
    vertex -0.30177669529665 -0.0883883476483164 -0.150888347648319
  endloop
endfacet
facet normal 9.69624234957937e-015 0.70710678118654 -0.707106781186555
  outer loop
    vertex -0.301776695296649 -0.30177669529664 -0.364276695296638
    vertex -0.17677669529665 4.33146851719357e-015 -0.0625000000000014
    vertex -0.17677669529664 -0.30177669529664 -0.364276695296638
  endloop
endfacet
facet normal 9.69624234957937e-015 0.70710678118654 -0.707106781186555
  outer loop
    vertex -0.17677669529664 -0.30177669529664 -0.364276695296638
    vertex -0.17677669529665 4.33146851719357e-015 -0.0625000000000014
    vertex -0.176776695296641 -0.124999999999994 -0.187499999999995
  endloop
endfacet
facet normal 6.79989363917017e-016 -0.707106781186546 0.707106781186549
  outer loop
    vertex 0.198223304703357 -0.614276695296632 -0.150888347648319
    vertex -0.17677669529665 -0.400888347648314 0.062499999999999
    vertex -0.17677669529665 -0.614276695296633 -0.150888347648319
  endloop
endfacet
facet normal 6.79989363917017e-016 -0.707106781186546 0.707106781186549
  outer loop
    vertex -0.17677669529665 -0.400888347648314 0.062499999999999
    vertex 0.198223304703357 -0.614276695296632 -0.150888347648319
    vertex 0.198223304703356 -0.400888347648314 0.062499999999999
  endloop
endfacet
endsolid Untitled-54c4208b
