ply
format ascii 1.0
comment Created by Blender 2.73 (sub 0) - www.blender.org, source file: 'hand.blend'
element vertex 43
property float x
property float y
property float z
property float nx
property float ny
property float nz
property float s
property float t
element face 52
property list uchar uint vertex_indices
end_header
0.062500 -0.176777 0.000000 0.577349 -0.577349 0.577349 0.281370 0.550861
-0.062500 0.000000 0.000000 -0.665822 0.095004 0.740013 0.398483 0.633673
-0.062500 -0.176777 0.000000 -0.233406 -0.334422 0.913022 0.281370 0.633673
0.062500 0.198223 -0.000000 0.577349 0.577349 0.577349 0.529804 0.550861
-0.062500 0.198223 -0.000000 -0.577349 0.577349 0.577349 0.529804 0.633673
-0.364277 -0.176777 -0.301777 -0.816492 0.577349 0.000000 0.934377 0.413572
-0.099112 -0.176777 -0.213388 -0.166295 0.561663 -0.810450 0.826009 0.429118
-0.275888 -0.176777 -0.390165 0.000000 0.577349 -0.816492 0.927509 0.358981
-0.187500 -0.176777 -0.125000 -0.227851 0.933195 -0.277810 0.864354 0.493917
0.062500 -0.176777 -0.051777 0.841090 -0.513535 0.169713 0.280323 0.517829
-0.025888 -0.301777 -0.140165 0.428968 -0.902921 0.025666 0.205132 0.443354
0.062500 -0.176777 -0.375000 0.726218 -0.683370 -0.074496 0.326785 0.335342
-0.062500 -0.176777 -0.250000 -0.840175 -0.376751 -0.389996 0.817135 0.400748
-0.062500 0.198223 -0.349112 -0.549120 0.804163 0.227454 0.575723 0.326007
-0.062500 -0.176777 -0.349112 -0.549120 -0.804163 0.227454 0.821322 0.343864
-0.062500 0.000000 0.000000 -0.665822 0.095004 0.740013 0.710451 0.540455
-0.062500 0.198223 -0.000000 -0.577349 0.577349 0.577349 0.597739 0.543838
-0.150888 0.198223 -0.614277 0.297098 0.630238 -0.717277 0.505567 0.181127
-0.364277 -0.176777 -0.614277 -0.577349 -0.577349 -0.577349 0.268227 0.057964
-0.364277 0.198223 -0.614277 -0.577349 0.577349 -0.577349 0.531825 0.053280
-0.150888 -0.176777 -0.614277 0.297098 -0.630238 -0.717277 0.345878 0.188008
-0.062500 -0.176777 -0.250000 -0.840175 -0.376751 -0.389996 0.226727 0.347123
-0.099112 -0.176777 -0.213388 -0.166295 0.561663 -0.810450 0.197520 0.349602
-0.364277 -0.301777 -0.301777 -0.816492 -0.577349 0.000000 0.999803 0.431509
-0.275888 -0.301777 -0.390165 0.000000 -0.577349 -0.816492 0.999920 0.359098
-0.364277 -0.301777 -0.301777 -0.816492 -0.577349 0.000000 0.000080 0.379536
-0.275888 -0.301777 -0.390165 0.000000 -0.577349 -0.816492 0.041827 0.323372
-0.150888 -0.301777 -0.088388 -0.322733 -0.705100 0.631367 0.136386 0.481642
-0.202665 -0.176777 -0.489277 -0.227454 -0.804163 0.549120 0.837697 0.227317
-0.202665 0.198223 -0.489277 -0.227454 0.804163 0.549120 0.591035 0.188326
-0.364277 0.198223 -0.489277 -0.577349 0.577349 0.577349 0.621223 0.078914
0.062500 0.198223 -0.400888 0.717277 0.630238 -0.297098 0.503403 0.333864
-0.275888 -0.176777 -0.390165 0.000000 0.577349 -0.816492 0.082992 0.266835
-0.364277 -0.176777 -0.489277 -0.577349 -0.577349 0.577349 0.857727 0.125392
-0.364277 0.198223 -0.614277 -0.577349 0.577349 -0.577349 0.636715 0.000080
-0.364277 -0.176777 -0.614277 -0.577349 -0.577349 -0.577349 0.873219 0.046557
-0.062500 -0.176777 0.000000 -0.233406 -0.334422 0.913022 0.205906 0.554953
0.062500 -0.176777 -0.400888 0.717277 -0.630238 -0.297098 0.330642 0.321511
-0.202665 -0.176777 -0.489277 -0.227454 -0.804163 0.549120 0.271986 0.180935
-0.062500 -0.176777 -0.349112 -0.549120 -0.804163 0.227454 0.261170 0.303498
-0.364277 -0.176777 -0.489277 -0.577349 -0.577349 0.577349 0.210123 0.105813
-0.062500 -0.176777 0.000000 -0.233406 -0.334422 0.913022 0.788428 0.588619
-0.150888 -0.301777 -0.088388 -0.322733 -0.705100 0.631367 0.892115 0.574144
3 0 1 2
3 1 3 4
3 3 1 0
3 5 6 7
3 6 5 8
3 9 10 11
3 12 13 14
3 13 12 15
3 13 15 16
3 17 18 19
3 18 17 20
3 10 21 11
3 21 10 22
3 7 23 5
3 23 7 24
3 10 25 26
3 25 10 27
3 13 28 14
3 28 13 29
3 30 17 19
3 17 30 29
3 17 29 31
3 31 29 13
3 31 13 3
3 3 13 16
3 32 10 26
3 10 32 22
3 28 30 33
3 30 28 29
3 33 34 35
3 34 33 30
3 36 9 0
3 37 9 11
3 9 37 31
3 9 31 3
3 3 0 9
3 9 27 10
3 27 9 36
3 6 15 12
3 15 6 8
3 37 18 20
3 18 37 38
3 38 37 39
3 39 37 11
3 39 11 21
3 40 18 38
3 15 8 41
3 41 23 42
3 23 41 5
3 5 41 8
3 17 37 20
3 37 17 31
