<?xml version="1.0" encoding="UTF-8" standalone="no"?>
<svg
   xmlns:dc="http://purl.org/dc/elements/1.1/"
   xmlns:cc="http://creativecommons.org/ns#"
   xmlns:rdf="http://www.w3.org/1999/02/22-rdf-syntax-ns#"
   xmlns:svg="http://www.w3.org/2000/svg"
   xmlns="http://www.w3.org/2000/svg"
   xmlns:sodipodi="http://sodipodi.sourceforge.net/DTD/sodipodi-0.dtd"
   xmlns:inkscape="http://www.inkscape.org/namespaces/inkscape"
   width="1024"
   height="1024"
   viewBox="0 0 1024 1024"
   version="1.1"
   id="svg2"
   inkscape:version="0.48.4 r9939"
   sodipodi:docname="head_uv_template.svg"
   inkscape:export-filename="C:\Users\karl\Desktop\person model\Head_default_texture.png"
   inkscape:export-xdpi="90"
   inkscape:export-ydpi="90">
  <metadata
     id="metadata210">
    <rdf:RDF>
      <cc:Work
         rdf:about="">
        <dc:format>image/svg+xml</dc:format>
        <dc:type
           rdf:resource="http://purl.org/dc/dcmitype/StillImage" />
        <dc:title></dc:title>
      </cc:Work>
    </rdf:RDF>
  </metadata>
  <defs
     id="defs208" />
  <sodipodi:namedview
     pagecolor="#ffffff"
     bordercolor="#666666"
     borderopacity="1"
     objecttolerance="10"
     gridtolerance="10"
     guidetolerance="10"
     inkscape:pageopacity="0"
     inkscape:pageshadow="2"
     inkscape:window-width="754"
     inkscape:window-height="480"
     id="namedview206"
     showgrid="true"
     inkscape:snap-bbox="true"
     inkscape:object-paths="true"
     inkscape:object-nodes="true"
     inkscape:zoom="1.84375"
     inkscape:cx="552.76495"
     inkscape:cy="412.54784"
     inkscape:window-x="745"
     inkscape:window-y="245"
     inkscape:window-maximized="0"
     inkscape:current-layer="svg2">
    <inkscape:grid
       type="xygrid"
       id="grid3975"
       empspacing="4"
       visible="true"
       enabled="true"
       snapvisiblegridlinesonly="true"
       dotted="false" />
  </sodipodi:namedview>
  <desc
     id="desc4">'head.blend', Head, (Blender 2.73 (sub 0))</desc>
  <polygon
     stroke="black"
     stroke-width="1"
     fill="rgb(204, 204, 204)"
     fill-opacity="0.25"
     points="318.505,723.378 412.539,578.360 301.041,606.004 "
     id="polygon6" />
  <polygon
     stroke="black"
     stroke-width="1"
     fill="rgb(204, 204, 204)"
     fill-opacity="0.25"
     points="412.539,578.360 484.736,685.810 482.233,644.871 "
     id="polygon8" />
  <polygon
     stroke="black"
     stroke-width="1"
     fill="rgb(204, 204, 204)"
     fill-opacity="0.25"
     points="488.504,606.695 504.992,590.201 503.859,538.601 "
     id="polygon10" />
  <polygon
     stroke="black"
     stroke-width="1"
     fill="rgb(204, 204, 204)"
     fill-opacity="0.25"
     points="417.778,763.343 464.954,870.312 506.389,778.486 "
     id="polygon12" />
  <polygon
     stroke="black"
     stroke-width="1"
     fill="rgb(204, 204, 204)"
     fill-opacity="0.25"
     points="427.781,898.254 417.778,763.343 365.522,799.611 "
     id="polygon14" />
  <polygon
     stroke="black"
     stroke-width="1"
     fill="rgb(204, 204, 204)"
     fill-opacity="0.25"
     points="10.566,491.924 160.598,505.137 112.220,348.410 "
     id="polygon16" />
  <polygon
     stroke="black"
     stroke-width="1"
     fill="rgb(204, 204, 204)"
     fill-opacity="0.25"
     points="160.598,505.137 301.041,606.004 264.743,464.169 "
     id="polygon18" />
  <polygon
     stroke="black"
     stroke-width="1"
     fill="rgb(204, 204, 204)"
     fill-opacity="0.25"
     points="365.522,799.611 417.778,763.343 318.505,723.378 "
     id="polygon20" />
  <polygon
     stroke="black"
     stroke-width="1"
     fill="rgb(204, 204, 204)"
     fill-opacity="0.25"
     points="505.497,607.395 482.233,644.871 505.780,643.913 "
     id="polygon22" />
  <polygon
     stroke="black"
     stroke-width="1"
     fill="rgb(204, 204, 204)"
     fill-opacity="0.25"
     points="482.233,644.871 505.497,607.395 488.504,606.695 "
     id="polygon24" />
  <polygon
     stroke="black"
     stroke-width="1"
     fill="rgb(204, 204, 204)"
     fill-opacity="0.25"
     points="160.598,505.137 10.566,491.924 0.086,654.434 "
     id="polygon26" />
  <polygon
     stroke="black"
     stroke-width="1"
     fill="rgb(204, 204, 204)"
     fill-opacity="0.25"
     points="405.032,942.031 507.281,957.727 427.781,898.254 "
     id="polygon28" />
  <polygon
     stroke="black"
     stroke-width="1"
     fill="rgb(204, 204, 204)"
     fill-opacity="0.25"
     points="507.281,957.727 405.032,942.031 387.884,1023.913 "
     id="polygon30" />
  <polygon
     stroke="black"
     stroke-width="1"
     fill="rgb(204, 204, 204)"
     fill-opacity="0.25"
     points="427.781,898.254 464.954,870.312 417.778,763.343 "
     id="polygon32" />
  <polygon
     stroke="black"
     stroke-width="1"
     fill="rgb(204, 204, 204)"
     fill-opacity="0.25"
     points="180.093,661.185 252.517,916.513 307.113,853.168 "
     id="polygon34" />
  <polygon
     stroke="black"
     stroke-width="1"
     fill="rgb(204, 204, 204)"
     fill-opacity="0.25"
     points="307.113,853.168 365.522,799.611 318.505,723.378 "
     id="polygon36" />
  <polygon
     stroke="black"
     stroke-width="1"
     fill="rgb(204, 204, 204)"
     fill-opacity="0.25"
     points="180.093,661.185 307.113,853.168 318.505,723.378 "
     id="polygon38" />
  <polygon
     stroke="black"
     stroke-width="1"
     fill="rgb(204, 204, 204)"
     fill-opacity="0.25"
     points="500.853,372.554 264.743,464.169 399.201,519.460 "
     id="polygon40" />
  <polygon
     stroke="black"
     stroke-width="1"
     fill="rgb(204, 204, 204)"
     fill-opacity="0.25"
     points="112.220,348.410 160.598,505.137 264.743,464.169 "
     id="polygon42" />
  <polygon
     stroke="black"
     stroke-width="1"
     fill="rgb(204, 204, 204)"
     fill-opacity="0.25"
     points="505.992,704.526 484.736,685.810 506.389,778.486 "
     id="polygon44" />
  <polygon
     stroke="black"
     stroke-width="1"
     fill="rgb(204, 204, 204)"
     fill-opacity="0.25"
     points="468.928,507.458 412.539,578.360 503.859,538.601 "
     id="polygon46" />
  <polygon
     stroke="black"
     stroke-width="1"
     fill="rgb(204, 204, 204)"
     fill-opacity="0.25"
     points="180.093,661.185 63.617,777.164 252.517,916.513 "
     id="polygon48" />
  <polygon
     stroke="black"
     stroke-width="1"
     fill="rgb(204, 204, 204)"
     fill-opacity="0.25"
     points="180.093,661.185 318.505,723.378 301.041,606.004 "
     id="polygon50" />
  <polygon
     stroke="black"
     stroke-width="1"
     fill="rgb(204, 204, 204)"
     fill-opacity="0.25"
     points="112.220,348.410 264.743,464.169 244.966,307.733 "
     id="polygon52" />
  <polygon
     stroke="black"
     stroke-width="1"
     fill="rgb(204, 204, 204)"
     fill-opacity="0.25"
     points="500.853,372.554 399.201,519.460 468.928,507.458 "
     id="polygon54" />
  <polygon
     stroke="black"
     stroke-width="1"
     fill="rgb(204, 204, 204)"
     fill-opacity="0.25"
     points="506.389,778.486 464.954,870.312 507.351,861.480 "
     id="polygon56" />
  <polygon
     stroke="black"
     stroke-width="1"
     fill="rgb(204, 204, 204)"
     fill-opacity="0.25"
     points="264.743,464.169 301.041,606.004 399.201,519.460 "
     id="polygon58" />
  <polygon
     stroke="black"
     stroke-width="1"
     fill="rgb(204, 204, 204)"
     fill-opacity="0.25"
     points="0.086,654.434 63.617,777.164 180.093,661.185 "
     id="polygon60" />
  <polygon
     stroke="black"
     stroke-width="1"
     fill="rgb(204, 204, 204)"
     fill-opacity="0.25"
     points="244.966,307.733 264.743,464.169 500.853,372.554 "
     id="polygon62" />
  <polygon
     stroke="black"
     stroke-width="1"
     fill="rgb(204, 204, 204)"
     fill-opacity="0.25"
     points="399.201,519.460 412.539,578.360 468.928,507.458 "
     id="polygon64" />
  <polygon
     stroke="black"
     stroke-width="1"
     fill="rgb(204, 204, 204)"
     fill-opacity="0.25"
     points="160.598,505.137 0.086,654.434 180.093,661.185 "
     id="polygon66" />
  <polygon
     stroke="black"
     stroke-width="1"
     fill="rgb(204, 204, 204)"
     fill-opacity="0.25"
     points="488.504,606.695 412.539,578.360 482.233,644.871 "
     id="polygon68" />
  <polygon
     stroke="black"
     stroke-width="1"
     fill="rgb(204, 204, 204)"
     fill-opacity="0.25"
     points="412.539,578.360 488.504,606.695 503.859,538.601 "
     id="polygon70" />
  <polygon
     stroke="black"
     stroke-width="1"
     fill="rgb(204, 204, 204)"
     fill-opacity="0.25"
     points="468.928,507.458 503.859,538.601 503.311,504.500 "
     id="polygon72" />
  <polygon
     stroke="black"
     stroke-width="1"
     fill="rgb(204, 204, 204)"
     fill-opacity="0.25"
     points="318.505,723.378 417.778,763.343 484.736,685.810 "
     id="polygon74" />
  <polygon
     stroke="black"
     stroke-width="1"
     fill="rgb(204, 204, 204)"
     fill-opacity="0.25"
     points="482.233,644.871 505.881,683.645 505.780,643.913 "
     id="polygon76" />
  <polygon
     stroke="black"
     stroke-width="1"
     fill="rgb(204, 204, 204)"
     fill-opacity="0.25"
     points="180.093,661.185 301.041,606.004 160.598,505.137 "
     id="polygon78" />
  <polygon
     stroke="black"
     stroke-width="1"
     fill="rgb(204, 204, 204)"
     fill-opacity="0.25"
     points="507.281,957.727 464.954,870.312 427.781,898.254 "
     id="polygon80" />
  <polygon
     stroke="black"
     stroke-width="1"
     fill="rgb(204, 204, 204)"
     fill-opacity="0.25"
     points="464.954,870.312 507.281,957.727 507.351,861.480 "
     id="polygon82" />
  <polygon
     stroke="black"
     stroke-width="1"
     fill="rgb(204, 204, 204)"
     fill-opacity="0.25"
     points="527.020,685.463 505.881,683.645 505.992,704.526 "
     id="polygon84" />
  <polygon
     stroke="black"
     stroke-width="1"
     fill="rgb(204, 204, 204)"
     fill-opacity="0.25"
     points="505.881,683.645 484.736,685.810 505.992,704.526 "
     id="polygon86" />
  <polygon
     stroke="black"
     stroke-width="1"
     fill="rgb(204, 204, 204)"
     fill-opacity="0.25"
     points="506.389,778.486 484.736,685.810 417.778,763.343 "
     id="polygon88" />
  <polygon
     stroke="black"
     stroke-width="1"
     fill="rgb(204, 204, 204)"
     fill-opacity="0.25"
     points="585.525,899.994 507.351,861.480 507.281,957.727 "
     id="polygon90" />
  <polygon
     stroke="black"
     stroke-width="1"
     fill="rgb(204, 204, 204)"
     fill-opacity="0.25"
     points="507.351,861.480 585.525,899.994 552.372,863.731 "
     id="polygon92" />
  <polygon
     stroke="black"
     stroke-width="1"
     fill="rgb(204, 204, 204)"
     fill-opacity="0.25"
     points="696.484,720.514 711.385,600.169 597.590,575.660 "
     id="polygon94" />
  <polygon
     stroke="black"
     stroke-width="1"
     fill="rgb(204, 204, 204)"
     fill-opacity="0.25"
     points="528.507,644.685 505.881,683.645 527.020,685.463 "
     id="polygon96" />
  <polygon
     stroke="black"
     stroke-width="1"
     fill="rgb(204, 204, 204)"
     fill-opacity="0.25"
     points="505.780,643.913 505.881,683.645 528.507,644.685 "
     id="polygon98" />
  <polygon
     stroke="black"
     stroke-width="1"
     fill="rgb(204, 204, 204)"
     fill-opacity="0.25"
     points="769.830,923.450 608.885,945.946 617.588,1023.914 "
     id="polygon100" />
  <polygon
     stroke="black"
     stroke-width="1"
     fill="rgb(204, 204, 204)"
     fill-opacity="0.25"
     points="608.885,945.946 769.830,923.450 709.011,853.729 "
     id="polygon102" />
  <polygon
     stroke="black"
     stroke-width="1"
     fill="rgb(204, 204, 204)"
     fill-opacity="0.25"
     points="503.859,538.601 504.992,590.201 522.688,605.491 "
     id="polygon104" />
  <polygon
     stroke="black"
     stroke-width="1"
     fill="rgb(204, 204, 204)"
     fill-opacity="0.25"
     points="318.505,723.378 484.736,685.810 412.539,578.360 "
     id="polygon106" />
  <polygon
     stroke="black"
     stroke-width="1"
     fill="rgb(204, 204, 204)"
     fill-opacity="0.25"
     points="851.591,491.867 837.457,652.792 1023.914,639.231 "
     id="polygon108" />
  <polygon
     stroke="black"
     stroke-width="1"
     fill="rgb(204, 204, 204)"
     fill-opacity="0.25"
     points="307.113,853.168 387.884,1023.913 405.032,942.031 "
     id="polygon110" />
  <polygon
     stroke="black"
     stroke-width="1"
     fill="rgb(204, 204, 204)"
     fill-opacity="0.25"
     points="387.884,1023.913 307.113,853.168 252.517,916.513 "
     id="polygon112" />
  <polygon
     stroke="black"
     stroke-width="1"
     fill="rgb(204, 204, 204)"
     fill-opacity="0.25"
     points="482.233,644.871 484.736,685.810 505.881,683.645 "
     id="polygon114" />
  <polygon
     stroke="black"
     stroke-width="1"
     fill="rgb(204, 204, 204)"
     fill-opacity="0.25"
     points="596.437,762.378 527.020,685.463 506.389,778.486 "
     id="polygon116" />
  <polygon
     stroke="black"
     stroke-width="1"
     fill="rgb(204, 204, 204)"
     fill-opacity="0.25"
     points="504.992,590.201 488.504,606.695 505.497,607.395 "
     id="polygon118" />
  <polygon
     stroke="black"
     stroke-width="1"
     fill="rgb(204, 204, 204)"
     fill-opacity="0.25"
     points="837.457,652.792 851.591,491.867 711.385,600.169 "
     id="polygon120" />
  <polygon
     stroke="black"
     stroke-width="1"
     fill="rgb(204, 204, 204)"
     fill-opacity="0.25"
     points="522.688,605.491 504.992,590.201 505.497,607.395 "
     id="polygon122" />
  <polygon
     stroke="black"
     stroke-width="1"
     fill="rgb(204, 204, 204)"
     fill-opacity="0.25"
     points="711.385,600.169 608.906,515.650 597.590,575.660 "
     id="polygon124" />
  <polygon
     stroke="black"
     stroke-width="1"
     fill="rgb(204, 204, 204)"
     fill-opacity="0.25"
     points="500.853,372.554 468.928,507.458 503.311,504.500 "
     id="polygon126" />
  <polygon
     stroke="black"
     stroke-width="1"
     fill="rgb(204, 204, 204)"
     fill-opacity="0.25"
     points="301.041,606.004 412.539,578.360 399.201,519.460 "
     id="polygon128" />
  <polygon
     stroke="black"
     stroke-width="1"
     fill="rgb(204, 204, 204)"
     fill-opacity="0.25"
     points="837.457,652.792 709.011,853.729 769.830,923.450 "
     id="polygon130" />
  <polygon
     stroke="black"
     stroke-width="1"
     fill="rgb(204, 204, 204)"
     fill-opacity="0.25"
     points="743.338,454.215 894.247,329.198 756.544,294.034 "
     id="polygon132" />
  <polygon
     stroke="black"
     stroke-width="1"
     fill="rgb(204, 204, 204)"
     fill-opacity="0.25"
     points="837.457,652.792 696.484,720.514 709.011,853.729 "
     id="polygon134" />
  <polygon
     stroke="black"
     stroke-width="1"
     fill="rgb(204, 204, 204)"
     fill-opacity="0.25"
     points="585.525,899.994 649.315,798.977 596.437,762.378 "
     id="polygon136" />
  <polygon
     stroke="black"
     stroke-width="1"
     fill="rgb(204, 204, 204)"
     fill-opacity="0.25"
     points="743.338,454.215 851.591,491.867 894.247,329.198 "
     id="polygon138" />
  <polygon
     stroke="black"
     stroke-width="1"
     fill="rgb(204, 204, 204)"
     fill-opacity="0.25"
     points="537.942,506.184 597.590,575.660 608.906,515.650 "
     id="polygon140" />
  <polygon
     stroke="black"
     stroke-width="1"
     fill="rgb(204, 204, 204)"
     fill-opacity="0.25"
     points="743.338,454.215 608.906,515.650 711.385,600.169 "
     id="polygon142" />
  <polygon
     stroke="black"
     stroke-width="1"
     fill="rgb(204, 204, 204)"
     fill-opacity="0.25"
     points="743.338,454.215 756.544,294.034 500.853,372.554 "
     id="polygon144" />
  <polygon
     stroke="black"
     stroke-width="1"
     fill="rgb(204, 204, 204)"
     fill-opacity="0.25"
     points="608.885,945.946 507.281,957.727 617.588,1023.914 "
     id="polygon146" />
  <polygon
     stroke="black"
     stroke-width="1"
     fill="rgb(204, 204, 204)"
     fill-opacity="0.25"
     points="507.281,957.727 608.885,945.946 585.525,899.994 "
     id="polygon148" />
  <polygon
     stroke="black"
     stroke-width="1"
     fill="rgb(204, 204, 204)"
     fill-opacity="0.25"
     points="500.853,372.554 503.311,504.500 537.942,506.184 "
     id="polygon150" />
  <polygon
     stroke="black"
     stroke-width="1"
     fill="rgb(204, 204, 204)"
     fill-opacity="0.25"
     points="585.525,899.994 709.011,853.729 649.315,798.977 "
     id="polygon152" />
  <polygon
     stroke="black"
     stroke-width="1"
     fill="rgb(204, 204, 204)"
     fill-opacity="0.25"
     points="709.011,853.729 585.525,899.994 608.885,945.946 "
     id="polygon154" />
  <polygon
     stroke="black"
     stroke-width="1"
     fill="rgb(204, 204, 204)"
     fill-opacity="0.25"
     points="696.484,720.514 596.437,762.378 649.315,798.977 "
     id="polygon156" />
  <polygon
     stroke="black"
     stroke-width="1"
     fill="rgb(204, 204, 204)"
     fill-opacity="0.25"
     points="851.591,491.867 743.338,454.215 711.385,600.169 "
     id="polygon158" />
  <polygon
     stroke="black"
     stroke-width="1"
     fill="rgb(204, 204, 204)"
     fill-opacity="0.25"
     points="837.457,652.792 769.830,923.450 963.083,769.641 "
     id="polygon160" />
  <polygon
     stroke="black"
     stroke-width="1"
     fill="rgb(204, 204, 204)"
     fill-opacity="0.25"
     points="1023.914,639.231 837.457,652.792 963.083,769.641 "
     id="polygon162" />
  <polygon
     stroke="black"
     stroke-width="1"
     fill="rgb(204, 204, 204)"
     fill-opacity="0.25"
     points="522.688,605.491 505.780,643.913 528.507,644.685 "
     id="polygon164" />
  <polygon
     stroke="black"
     stroke-width="1"
     fill="rgb(204, 204, 204)"
     fill-opacity="0.25"
     points="505.780,643.913 522.688,605.491 505.497,607.395 "
     id="polygon166" />
  <polygon
     stroke="black"
     stroke-width="1"
     fill="rgb(204, 204, 204)"
     fill-opacity="0.25"
     points="585.525,899.994 596.437,762.378 552.372,863.731 "
     id="polygon168" />
  <polygon
     stroke="black"
     stroke-width="1"
     fill="rgb(204, 204, 204)"
     fill-opacity="0.25"
     points="696.484,720.514 597.590,575.660 527.020,685.463 "
     id="polygon170" />
  <polygon
     stroke="black"
     stroke-width="1"
     fill="rgb(204, 204, 204)"
     fill-opacity="0.25"
     points="500.853,372.554 537.942,506.184 608.906,515.650 "
     id="polygon172" />
  <polygon
     stroke="black"
     stroke-width="1"
     fill="rgb(204, 204, 204)"
     fill-opacity="0.25"
     points="503.311,504.500 503.859,538.601 537.942,506.184 "
     id="polygon174" />
  <polygon
     stroke="black"
     stroke-width="1"
     fill="rgb(204, 204, 204)"
     fill-opacity="0.25"
     points="527.020,685.463 505.992,704.526 506.389,778.486 "
     id="polygon176" />
  <polygon
     stroke="black"
     stroke-width="1"
     fill="rgb(204, 204, 204)"
     fill-opacity="0.25"
     points="851.591,491.867 1005.591,471.684 894.247,329.198 "
     id="polygon178" />
  <polygon
     stroke="black"
     stroke-width="1"
     fill="rgb(204, 204, 204)"
     fill-opacity="0.25"
     points="596.437,762.378 506.389,778.486 552.372,863.731 "
     id="polygon180" />
  <polygon
     stroke="black"
     stroke-width="1"
     fill="rgb(204, 204, 204)"
     fill-opacity="0.25"
     points="837.457,652.792 711.385,600.169 696.484,720.514 "
     id="polygon182" />
  <polygon
     stroke="black"
     stroke-width="1"
     fill="rgb(204, 204, 204)"
     fill-opacity="0.25"
     points="851.591,491.867 1023.914,639.231 1005.591,471.684 "
     id="polygon184" />
  <polygon
     stroke="black"
     stroke-width="1"
     fill="rgb(204, 204, 204)"
     fill-opacity="0.25"
     points="696.484,720.514 527.020,685.463 596.437,762.378 "
     id="polygon186" />
  <polygon
     stroke="black"
     stroke-width="1"
     fill="rgb(204, 204, 204)"
     fill-opacity="0.25"
     points="709.011,853.729 696.484,720.514 649.315,798.977 "
     id="polygon188" />
  <polygon
     stroke="black"
     stroke-width="1"
     fill="rgb(204, 204, 204)"
     fill-opacity="0.25"
     points="537.942,506.184 503.859,538.601 597.590,575.660 "
     id="polygon190" />
  <polygon
     stroke="black"
     stroke-width="1"
     fill="rgb(204, 204, 204)"
     fill-opacity="0.25"
     points="506.389,778.486 507.351,861.480 552.372,863.731 "
     id="polygon192" />
  <polygon
     stroke="black"
     stroke-width="1"
     fill="rgb(204, 204, 204)"
     fill-opacity="0.25"
     points="597.590,575.660 528.507,644.685 527.020,685.463 "
     id="polygon194" />
  <polygon
     stroke="black"
     stroke-width="1"
     fill="rgb(204, 204, 204)"
     fill-opacity="0.25"
     points="597.590,575.660 522.688,605.491 528.507,644.685 "
     id="polygon196" />
  <polygon
     points="522.688,605.491 597.590,575.660 503.859,538.601 "
     id="polygon198"
     stroke-width="1"
     stroke="black"
     fill-opacity="0.25"
     fill="rgb(204, 204, 204)" />
  <polygon
     stroke="black"
     stroke-width="1"
     fill="rgb(204, 204, 204)"
     fill-opacity="0.25"
     points="743.338,454.215 500.853,372.554 608.906,515.650 "
     id="polygon200" />
  <polygon
     stroke="black"
     stroke-width="1"
     fill="rgb(204, 204, 204)"
     fill-opacity="0.25"
     points="307.113,853.168 427.781,898.254 365.522,799.611 "
     id="polygon202" />
  <polygon
     stroke="black"
     stroke-width="1"
     fill="rgb(204, 204, 204)"
     fill-opacity="0.25"
     points="427.781,898.254 307.113,853.168 405.032,942.031 "
     id="polygon204" />
  <path
     sodipodi:type="arc"
     style="fill:#000000;fill-opacity:1;stroke:none"
     id="path3187"
     sodipodi:cx="461.83051"
     sodipodi:cy="562.44067"
     sodipodi:rx="20.881355"
     sodipodi:ry="13.016949"
     d="m 482.71186,562.44067 a 20.881355,13.016949 0 1 1 -41.76271,0 20.881355,13.016949 0 1 1 41.76271,0 z"
     transform="matrix(0.95779224,0,0,0.92187503,17.662326,41.499987)" />
  <path
     sodipodi:type="arc"
     style="fill:#000000;fill-opacity:1;stroke:none"
     id="path3187-1"
     sodipodi:cx="461.83051"
     sodipodi:cy="562.44067"
     sodipodi:rx="20.881355"
     sodipodi:ry="13.016949"
     d="m 482.71186,562.44067 a 20.881355,13.016949 0 1 1 -41.76271,0 20.881355,13.016949 0 1 1 41.76271,0 z"
     transform="matrix(0.95779224,0,0,0.92187503,105.66233,41.499987)" />
  <rect
     style="fill:#000000;fill-opacity:1;stroke:none"
     id="rect3977"
     width="32"
     height="8"
     x="488"
     y="640"
     rx="4"
     ry="4" />
  <path
     style="fill:#000000;stroke:none;stroke-width:1px;stroke-linecap:butt;stroke-linejoin:miter;stroke-opacity:1;fill-opacity:1"
     d="m 408,512 72,-8 0,8 -72,8 z"
     id="path3979"
     inkscape:connector-curvature="0" />
  <path
     style="fill:#000000;stroke:none;stroke-width:1px;stroke-linecap:butt;stroke-linejoin:miter;stroke-opacity:1;fill-opacity:1"
     d="m 528,504 0,8 72,8 0,-8 z"
     id="path3981"
     inkscape:connector-curvature="0"
     inkscape:export-xdpi="90"
     inkscape:export-ydpi="90" />
  <path
     sodipodi:type="arc"
     style="fill:#000000;fill-opacity:1;stroke:none"
     id="path3983"
     sodipodi:cx="300"
     sodipodi:cy="616"
     sodipodi:rx="12"
     sodipodi:ry="16"
     d="m 312,616 a 12,16 0 1 1 -24,0 12,16 0 1 1 24,0 z"
     transform="matrix(-1,0,0,1,600,0)" />
</svg>
