ply
format ascii 1.0
comment Created by Blender 2.73 (sub 0) - www.blender.org, source file: 'head.blend'
element vertex 59
property float x
property float y
property float z
property float nx
property float ny
property float nz
property float s
property float t
element face 100
property list uchar uint vertex_indices
end_header
-0.375000 -0.083333 0.625000 -0.922971 0.094516 -0.372997 0.311040 0.293576
-0.375000 -0.583333 1.000000 -0.770196 -0.626606 -0.118778 0.402870 0.435196
-0.500000 -0.142333 1.000000 -0.996826 0.041078 -0.067843 0.293985 0.408200
-0.125000 -0.668333 0.400000 -0.582812 -0.581072 -0.567980 0.473375 0.330264
-0.125000 -0.708333 0.625000 -0.322306 -0.944823 -0.058138 0.470930 0.370243
-0.078125 -0.708333 0.812500 -0.328684 -0.941465 -0.074831 0.477055 0.407524
0.000000 -0.833333 0.875000 0.000000 -0.992401 -0.122898 0.493156 0.423632
0.000000 -0.708333 1.125000 0.000000 -0.999756 -0.021302 0.492050 0.474023
-0.204777 -0.260110 0.375000 -0.830775 -0.347789 -0.434492 0.407986 0.254548
-0.176777 -0.176777 0.000000 -0.519852 -0.474044 -0.710624 0.454057 0.150086
0.000000 -0.333333 0.250000 0.000000 -0.730796 -0.682577 0.494520 0.239760
-0.250000 0.000000 0.000000 -0.773125 0.055422 -0.631794 0.417755 0.122799
-0.250000 -0.083333 0.375000 -0.970092 0.051057 -0.237251 0.356955 0.219130
0.000000 0.416667 1.375000 0.000000 0.909299 0.416089 0.010318 0.519605
-0.307000 0.240167 1.399000 -0.685141 0.587573 0.430464 0.156834 0.506702
0.000000 0.181108 1.595610 0.000000 0.418592 0.908139 0.109590 0.659756
-0.375000 -0.083333 1.500000 -0.734794 0.021790 0.677908 0.258538 0.546710
0.000000 -0.708333 0.812500 0.000000 -0.850642 -0.525712 0.493649 0.406841
0.000000 -0.708333 0.625000 0.000000 -1.000000 0.000000 0.493926 0.371179
0.000000 0.463667 1.062500 0.000000 0.999939 -0.010315 0.000084 0.360904
-0.176777 0.176777 0.000000 -0.560564 0.601886 -0.568712 0.395539 0.080048
0.000000 0.000000 0.000000 0.000000 0.000000 -1.000000 0.495391 0.064720
0.000000 0.250000 0.000000 0.000000 0.837367 -0.546617 0.378793 0.000085
-0.333963 0.249685 0.941441 -0.752556 0.640828 -0.151555 0.175872 0.354311
0.000000 0.166667 0.375000 0.000000 0.993835 -0.110752 0.246599 0.104968
-0.176777 0.093443 0.375000 -0.705466 0.696371 -0.131779 0.299915 0.166828
0.000000 -0.583333 1.500000 0.000000 -0.582018 0.813135 0.489115 0.636178
-0.375000 -0.583333 1.250000 -0.737907 -0.582995 0.339885 0.389845 0.492715
0.000000 -0.585013 0.343466 0.000000 -0.319071 -0.947722 0.494133 0.311986
-0.125000 -0.708333 1.250000 -0.243507 -0.948485 0.202582 0.457937 0.504436
0.000000 0.418272 0.801416 0.000000 0.931608 -0.363445 0.062126 0.241051
0.000000 -0.083333 1.625000 0.000000 -0.064821 0.997894 0.239225 0.699480
0.000000 -0.250000 0.000000 0.000000 -0.665395 -0.746483 0.495460 0.158711
0.000000 -0.708333 1.250000 0.000000 -0.973235 0.229743 0.491515 0.507324
0.000000 -0.708333 0.375000 0.000000 -0.765435 -0.643483 0.494025 0.332378
0.125000 -0.668333 0.400000 0.582812 -0.581072 -0.567980 0.514668 0.330602
0.250000 0.000000 0.000000 0.773125 0.055422 -0.631794 0.571802 0.121099
0.176777 -0.176777 0.000000 0.519852 -0.474044 -0.710624 0.539426 0.156513
0.375000 -0.083333 0.625000 0.922971 0.094516 -0.372997 0.680161 0.296373
0.500000 -0.142333 1.000000 0.996826 0.041078 -0.067843 0.694712 0.413897
0.375000 -0.583333 1.000000 0.770196 -0.626606 -0.118778 0.583584 0.437832
0.125000 -0.708333 0.625000 0.322306 -0.944823 -0.058138 0.516120 0.370425
0.000000 0.166667 0.375000 0.000000 0.993835 -0.110752 0.751787 0.098194
0.176777 0.176777 0.000000 0.560564 0.601886 -0.568712 0.594614 0.076225
0.000000 0.250000 0.000000 0.000000 0.837367 -0.546617 0.603113 0.000084
0.176777 0.093443 0.375000 0.705466 0.696371 -0.131779 0.692393 0.166281
0.078125 -0.708333 0.812500 0.328684 -0.941465 -0.074831 0.510437 0.408700
0.307000 0.240167 1.399000 0.685141 0.587573 0.430464 0.831632 0.519661
0.333963 0.249685 0.941441 0.752556 0.640828 -0.151555 0.817829 0.362508
0.000000 0.463667 1.062500 0.000000 0.999939 -0.010315 0.999916 0.375751
0.204777 -0.260110 0.375000 0.830775 -0.347789 -0.434492 0.582458 0.255491
0.375000 -0.583333 1.250000 0.737907 -0.582995 0.339885 0.594635 0.496436
0.375000 -0.083333 1.500000 0.734794 0.021790 0.677908 0.725916 0.556431
0.000000 0.181108 1.595610 0.000000 0.418592 0.908139 0.873288 0.678517
0.000000 -0.083333 1.625000 0.000000 -0.064821 0.997894 0.738812 0.712857
0.250000 -0.083333 0.375000 0.970092 0.051057 -0.237251 0.634097 0.219749
0.125000 -0.708333 1.250000 0.243507 -0.948485 0.202582 0.525334 0.505680
0.000000 0.418272 0.801416 0.000000 0.931608 -0.363445 0.940511 0.248397
0.000000 0.416667 1.375000 0.000000 0.909299 0.416089 0.982023 0.539371
3 0 1 2
3 1 3 4
3 5 6 7
3 8 9 10
3 11 8 12
3 13 14 15
3 14 2 16
3 12 8 0
3 17 4 18
3 4 17 5
3 14 13 19
3 20 21 11
3 21 20 22
3 11 9 8
3 23 24 25
3 25 12 0
3 23 25 0
3 26 16 27
3 15 14 16
3 28 3 10
3 29 1 7
3 23 30 24
3 23 0 2
3 15 16 31
3 26 27 29
3 10 9 32
3 16 2 27
3 19 30 23
3 31 16 26
3 27 1 29
3 14 19 23
3 5 1 4
3 1 5 7
3 29 7 33
3 0 8 3
3 4 34 18
3 23 2 14
3 21 9 11
3 9 21 32
3 35 34 28
3 34 3 28
3 10 3 8
3 36 32 21
3 32 36 37
3 38 39 40
3 41 34 35
3 18 34 41
3 42 43 44
3 43 42 45
3 7 6 46
3 0 3 1
3 47 48 49
3 25 22 20
3 22 25 24
3 4 3 34
3 50 35 10
3 6 5 17
3 48 47 39
3 46 6 17
3 39 51 40
3 26 29 33
3 2 1 27
3 48 45 42
3 52 53 54
3 48 38 45
3 36 55 50
3 52 47 53
3 56 40 51
3 52 51 39
3 52 54 26
3 43 21 44
3 21 43 36
3 26 33 56
3 36 45 55
3 45 36 43
3 38 50 55
3 47 52 39
3 48 42 57
3 49 48 57
3 46 18 41
3 18 46 17
3 36 50 37
3 38 40 35
3 26 56 51
3 33 7 56
3 35 28 10
3 47 58 53
3 50 10 37
3 48 39 38
3 47 49 58
3 38 35 50
3 45 38 55
3 56 7 40
3 10 32 37
3 40 41 35
3 40 46 41
3 46 40 7
3 52 26 51
3 25 11 12
3 11 25 20
