solid Untitled-54c31eb9
facet normal -0.904182664129202 -0.256287603211232 -0.341716804281644
  outer loop
    vertex -0.374999999999996 -0.0833333333333331 0.625000000000001
    vertex -0.374999999999996 -0.583333333333333 0.999999999999999
    vertex -0.499999999999999 -0.142333333333333 0.999999999999999
  endloop
endfacet
facet normal -0.602465013423337 -0.78582393055217 -0.139702032098165
  outer loop
    vertex -0.374999999999996 -0.583333333333333 0.999999999999999
    vertex -0.124999999999998 -0.668333333333332 0.4
    vertex -0.124999999999998 -0.708333333333332 0.624999999999999
  endloop
endfacet
facet normal -0.872871560943981 -0.436435780471966 0.218217890235983
  outer loop
    vertex -0.0781249999999959 -0.708333333333332 0.812499999999999
    vertex 0.0 -0.833333333333333 0.874999999999999
    vertex 0.0 -0.708333333333332 1.125
  endloop
endfacet
facet normal -0.447250830256316 -0.865458109545458 -0.225718753002576
  outer loop
    vertex -0.204776695296637 -0.26011002862997 0.375
    vertex -0.176776695296635 -0.176776695296637 8.01482679704548e-032
    vertex 0.0 -0.333333333333333 0.249999999999999
  endloop
endfacet
facet normal -0.967334907086596 -0.247465205636792 -0.054992267919287
  outer loop
    vertex -0.249999999999998 0.0 8.01482679704548e-032
    vertex -0.204776695296637 -0.26011002862997 0.375
    vertex -0.249999999999998 -0.0833333333333331 0.375
  endloop
endfacet
facet normal -0.318447454280452 0.647981418064197 0.691889659343028
  outer loop
    vertex 0.0 0.416666666666667 1.375
    vertex -0.306999999999997 0.240166666666667 1.399
    vertex 0.0 0.181108006398132 1.59560979327693
  endloop
endfacet
facet normal -0.943033797585992 0.262174068251833 0.204821909342787
  outer loop
    vertex -0.306999999999997 0.240166666666667 1.399
    vertex -0.499999999999999 -0.142333333333333 0.999999999999999
    vertex -0.374999999999996 -0.0833333333333331 1.5
  endloop
endfacet
facet normal -0.871894022133018 -0.22304936160163 -0.435947011066499
  outer loop
    vertex -0.249999999999998 -0.0833333333333331 0.375
    vertex -0.204776695296637 -0.26011002862997 0.375
    vertex -0.374999999999996 -0.0833333333333331 0.625000000000001
  endloop
endfacet
facet normal 0.0 -1.0 0.0
  outer loop
    vertex 0.0 -0.708333333333332 0.812499999999999
    vertex -0.124999999999998 -0.708333333333332 0.624999999999999
    vertex 0.0 -0.708333333333332 0.624999999999999
  endloop
endfacet
facet normal 0.0 -1.0 0.0
  outer loop
    vertex -0.124999999999998 -0.708333333333332 0.624999999999999
    vertex 0.0 -0.708333333333332 0.812499999999999
    vertex -0.0781249999999959 -0.708333333333332 0.812499999999999
  endloop
endfacet
facet normal -0.486538619718356 0.863942452869181 0.129936944911525
  outer loop
    vertex -0.306999999999997 0.240166666666667 1.399
    vertex 0.0 0.416666666666667 1.375
    vertex 0.0 0.463666666666667 1.0625
  endloop
endfacet
facet normal 0.0 0.0 -1.0
  outer loop
    vertex -0.176776695296635 0.176776695296637 8.01482679704548e-032
    vertex 0.0 0.0 8.01482679704548e-032
    vertex -0.249999999999998 0.0 8.01482679704548e-032
  endloop
endfacet
facet normal 0.0 0.0 -1.0
  outer loop
    vertex 0.0 0.0 8.01482679704548e-032
    vertex -0.176776695296635 0.176776695296637 8.01482679704548e-032
    vertex 0.0 0.250000000000001 8.01482679704548e-032
  endloop
endfacet
facet normal -0.913111994134939 -0.378223371936236 -0.152228667103467
  outer loop
    vertex -0.249999999999998 0.0 8.01482679704548e-032
    vertex -0.176776695296635 -0.176776695296637 8.01482679704548e-032
    vertex -0.204776695296637 -0.26011002862997 0.375
  endloop
endfacet
facet normal -0.359943886683224 0.868981412923909 -0.339575768322978
  outer loop
    vertex -0.333962728800087 0.249685302266623 0.941440576205531
    vertex 0.0 0.166666666666668 0.375
    vertex -0.176776695296635 0.0934433619633043 0.375
  endloop
endfacet
facet normal -0.838716980803313 0.347407948441348 -0.419358490401647
  outer loop
    vertex -0.176776695296635 0.0934433619633043 0.375
    vertex -0.249999999999998 -0.0833333333333331 0.375
    vertex -0.374999999999996 -0.0833333333333331 0.625000000000001
  endloop
endfacet
facet normal -0.829561072408219 0.434973506993157 -0.350180632472727
  outer loop
    vertex -0.333962728800087 0.249685302266623 0.941440576205531
    vertex -0.176776695296635 0.0934433619633043 0.375
    vertex -0.374999999999996 -0.0833333333333331 0.625000000000001
  endloop
endfacet
facet normal -0.512147519731589 -0.384110639798688 0.768221279597372
  outer loop
    vertex 0.0 -0.583333333333333 1.5
    vertex -0.374999999999996 -0.0833333333333331 1.5
    vertex -0.374999999999996 -0.583333333333333 1.25
  endloop
endfacet
facet normal -0.456118339763586 0.351171091379553 0.817700999577843
  outer loop
    vertex 0.0 0.181108006398132 1.59560979327693
    vertex -0.306999999999997 0.240166666666667 1.399
    vertex -0.374999999999996 -0.0833333333333331 1.5
  endloop
endfacet
facet normal -0.188480651457654 -0.341898808844258 -0.92064121596688
  outer loop
    vertex 0.0 -0.585012529055064 0.343466179588505
    vertex -0.124999999999998 -0.668333333333332 0.4
    vertex 0.0 -0.333333333333333 0.249999999999999
  endloop
endfacet
facet normal -0.235702260395518 -0.942809041582063 -0.235702260395513
  outer loop
    vertex -0.124999999999998 -0.708333333333332 1.25
    vertex -0.374999999999996 -0.583333333333333 0.999999999999999
    vertex 0.0 -0.708333333333332 1.125
  endloop
endfacet
facet normal -0.543711194313257 0.72282463978193 -0.42650050094059
  outer loop
    vertex -0.333962728800087 0.249685302266623 0.941440576205531
    vertex 0.0 0.41827218536637 0.801416072244173
    vertex 0.0 0.166666666666668 0.375
  endloop
endfacet
facet normal -0.904954555064212 0.34636837719226 -0.24715622700983
  outer loop
    vertex -0.333962728800087 0.249685302266623 0.941440576205531
    vertex -0.374999999999996 -0.0833333333333331 0.625000000000001
    vertex -0.499999999999999 -0.142333333333333 0.999999999999999
  endloop
endfacet
facet normal -0.31448452928833 0.104856131832998 0.943453587864988
  outer loop
    vertex 0.0 0.181108006398132 1.59560979327693
    vertex -0.374999999999996 -0.0833333333333331 1.5
    vertex 0.0 -0.0833333333333331 1.625
  endloop
endfacet
facet normal -0.371390676354107 -0.742781352708209 0.557086014531151
  outer loop
    vertex 0.0 -0.583333333333333 1.5
    vertex -0.374999999999996 -0.583333333333333 1.25
    vertex -0.124999999999998 -0.708333333333332 1.25
  endloop
endfacet
facet normal -0.36573327777974 -0.882958239427007 -0.294319413142336
  outer loop
    vertex 0.0 -0.333333333333333 0.249999999999999
    vertex -0.176776695296635 -0.176776695296637 8.01482679704548e-032
    vertex 0.0 -0.249999999999999 8.01482679704548e-032
  endloop
endfacet
facet normal -0.958605410032745 -0.127338657018168 0.254677314036336
  outer loop
    vertex -0.374999999999996 -0.0833333333333331 1.5
    vertex -0.499999999999999 -0.142333333333333 0.999999999999999
    vertex -0.374999999999996 -0.583333333333333 1.25
  endloop
endfacet
facet normal -0.494657601974104 0.856241980818011 -0.148874198886435
  outer loop
    vertex 0.0 0.463666666666667 1.0625
    vertex 0.0 0.41827218536637 0.801416072244173
    vertex -0.333962728800087 0.249685302266623 0.941440576205531
  endloop
endfacet
facet normal -0.307692307692309 -0.230769230769229 0.923076923076923
  outer loop
    vertex 0.0 -0.0833333333333331 1.625
    vertex -0.374999999999996 -0.0833333333333331 1.5
    vertex 0.0 -0.583333333333333 1.5
  endloop
endfacet
facet normal -0.44721359549996 -0.894427190999915 0.0
  outer loop
    vertex -0.374999999999996 -0.583333333333333 1.25
    vertex -0.374999999999996 -0.583333333333333 0.999999999999999
    vertex -0.124999999999998 -0.708333333333332 1.25
  endloop
endfacet
facet normal -0.551563880133169 0.832643313048119 0.0498236828094305
  outer loop
    vertex -0.306999999999997 0.240166666666667 1.399
    vertex 0.0 0.463666666666667 1.0625
    vertex -0.333962728800087 0.249685302266623 0.941440576205531
  endloop
endfacet
facet normal -0.340502612303502 -0.936382183834623 0.0851256530758734
  outer loop
    vertex -0.0781249999999959 -0.708333333333332 0.812499999999999
    vertex -0.374999999999996 -0.583333333333333 0.999999999999999
    vertex -0.124999999999998 -0.708333333333332 0.624999999999999
  endloop
endfacet
facet normal -0.340502612303502 -0.936382183834623 0.0851256530758734
  outer loop
    vertex -0.374999999999996 -0.583333333333333 0.999999999999999
    vertex -0.0781249999999959 -0.708333333333332 0.812499999999999
    vertex 0.0 -0.708333333333332 1.125
  endloop
endfacet
facet normal 0.0 -1.0 0.0
  outer loop
    vertex -0.124999999999998 -0.708333333333332 1.25
    vertex 0.0 -0.708333333333332 1.125
    vertex 0.0 -0.708333333333332 1.25
  endloop
endfacet
facet normal -0.869648952951061 -0.197654329287526 -0.452375358242491
  outer loop
    vertex -0.374999999999996 -0.0833333333333331 0.625000000000001
    vertex -0.204776695296637 -0.26011002862997 0.375
    vertex -0.124999999999998 -0.668333333333332 0.4
  endloop
endfacet
facet normal 0.0 -1.0 0.0
  outer loop
    vertex -0.124999999999998 -0.708333333333332 0.624999999999999
    vertex 0.0 -0.708333333333332 0.375
    vertex 0.0 -0.708333333333332 0.624999999999999
  endloop
endfacet
facet normal -0.915657200940633 0.397115551362491 0.0622183994621329
  outer loop
    vertex -0.333962728800087 0.249685302266623 0.941440576205531
    vertex -0.499999999999999 -0.142333333333333 0.999999999999999
    vertex -0.306999999999997 0.240166666666667 1.399
  endloop
endfacet
facet normal 0.0 0.0 -1.0
  outer loop
    vertex 0.0 0.0 8.01482679704548e-032
    vertex -0.176776695296635 -0.176776695296637 8.01482679704548e-032
    vertex -0.249999999999998 0.0 8.01482679704548e-032
  endloop
endfacet
facet normal 0.0 0.0 -1.0
  outer loop
    vertex -0.176776695296635 -0.176776695296637 8.01482679704548e-032
    vertex 0.0 0.0 8.01482679704548e-032
    vertex 0.0 -0.249999999999999 8.01482679704548e-032
  endloop
endfacet
facet normal 0.263398813871966 -0.238986472836777 -0.934615712820985
  outer loop
    vertex 0.125 -0.668333333333332 0.4
    vertex 0.0 -0.708333333333332 0.375
    vertex 0.0 -0.585012529055064 0.343466179588505
  endloop
endfacet
facet normal -0.263398813871972 -0.238986472836777 -0.934615712820983
  outer loop
    vertex 0.0 -0.708333333333332 0.375
    vertex -0.124999999999998 -0.668333333333332 0.4
    vertex 0.0 -0.585012529055064 0.343466179588505
  endloop
endfacet
facet normal -0.555105254630991 -0.158486790483681 -0.8165415442727
  outer loop
    vertex 0.0 -0.333333333333333 0.249999999999999
    vertex -0.124999999999998 -0.668333333333332 0.4
    vertex -0.204776695296637 -0.26011002862997 0.375
  endloop
endfacet
facet normal 0.0 0.0 -1.0
  outer loop
    vertex 0.250000000000001 0.0 8.01482679704548e-032
    vertex 0.0 -0.249999999999999 8.01482679704548e-032
    vertex 0.0 0.0 8.01482679704548e-032
  endloop
endfacet
facet normal 0.0 0.0 -1.0
  outer loop
    vertex 0.0 -0.249999999999999 8.01482679704548e-032
    vertex 0.250000000000001 0.0 8.01482679704548e-032
    vertex 0.176776695296638 -0.176776695296637 8.01482679704548e-032
  endloop
endfacet
facet normal 0.904182664129206 -0.256287603211228 -0.341716804281638
  outer loop
    vertex 0.374999999999999 -0.0833333333333331 0.625000000000001
    vertex 0.499999999999999 -0.142333333333333 0.999999999999999
    vertex 0.374999999999999 -0.583333333333333 0.999999999999999
  endloop
endfacet
facet normal 0.330406482225762 -0.92926823125995 -0.165203241112882
  outer loop
    vertex 0.125 -0.708333333333332 0.624999999999999
    vertex 0.0 -0.708333333333332 0.375
    vertex 0.125 -0.668333333333332 0.4
  endloop
endfacet
facet normal 0.0 -1.0 0.0
  outer loop
    vertex 0.0 -0.708333333333332 0.624999999999999
    vertex 0.0 -0.708333333333332 0.375
    vertex 0.125 -0.708333333333332 0.624999999999999
  endloop
endfacet
facet normal 0.37486455726734 0.905003098207798 0.201111799601732
  outer loop
    vertex 0.0 0.166666666666668 0.375
    vertex 0.176776695296638 0.176776695296637 8.01482679704548e-032
    vertex 0.0 0.250000000000001 8.01482679704548e-032
  endloop
endfacet
facet normal 0.37486455726734 0.905003098207798 0.201111799601732
  outer loop
    vertex 0.176776695296638 0.176776695296637 8.01482679704548e-032
    vertex 0.0 0.166666666666668 0.375
    vertex 0.176776695296638 0.0934433619633043 0.375
  endloop
endfacet
facet normal 0.872871560943973 -0.436435780471979 0.21821789023599
  outer loop
    vertex 0.0 -0.708333333333332 1.125
    vertex 0.0 -0.833333333333333 0.874999999999999
    vertex 0.0781249999999989 -0.708333333333332 0.812499999999999
  endloop
endfacet
facet normal -0.904741459236605 -0.255576683400169 -0.340768911200226
  outer loop
    vertex -0.374999999999996 -0.0833333333333331 0.625000000000001
    vertex -0.124999999999998 -0.668333333333332 0.4
    vertex -0.374999999999996 -0.583333333333333 0.999999999999999
  endloop
endfacet
facet normal 0.551563880133168 0.83264331304812 0.049823682809427
  outer loop
    vertex 0.307 0.240166666666667 1.399
    vertex 0.333962728800088 0.249685302266623 0.941440576205531
    vertex 0.0 0.463666666666667 1.0625
  endloop
endfacet
facet normal -0.374864557267346 0.905003098207796 0.201111799601732
  outer loop
    vertex -0.176776695296635 0.0934433619633043 0.375
    vertex 0.0 0.250000000000001 8.01482679704548e-032
    vertex -0.176776695296635 0.176776695296637 8.01482679704548e-032
  endloop
endfacet
facet normal -0.374864557267346 0.905003098207796 0.201111799601732
  outer loop
    vertex 0.0 0.250000000000001 8.01482679704548e-032
    vertex -0.176776695296635 0.0934433619633043 0.375
    vertex 0.0 0.166666666666668 0.375
  endloop
endfacet
facet normal -0.330406482225768 -0.929268231259948 -0.165203241112881
  outer loop
    vertex -0.124999999999998 -0.708333333333332 0.624999999999999
    vertex -0.124999999999998 -0.668333333333332 0.4
    vertex 0.0 -0.708333333333332 0.375
  endloop
endfacet
facet normal 0.55510525463099 -0.158486790483677 -0.816541544272701
  outer loop
    vertex 0.204776695296637 -0.26011002862997 0.375
    vertex 0.125 -0.668333333333332 0.4
    vertex 0.0 -0.333333333333333 0.249999999999999
  endloop
endfacet
facet normal 0.0 -0.447213595499958 -0.894427190999916
  outer loop
    vertex 0.0 -0.833333333333333 0.874999999999999
    vertex -0.0781249999999959 -0.708333333333332 0.812499999999999
    vertex 0.0 -0.708333333333332 0.812499999999999
  endloop
endfacet
facet normal 0.915657200940634 0.39711555136249 0.0622183994621272
  outer loop
    vertex 0.333962728800088 0.249685302266623 0.941440576205531
    vertex 0.307 0.240166666666667 1.399
    vertex 0.499999999999999 -0.142333333333333 0.999999999999999
  endloop
endfacet
facet normal 0.0 -0.447213595499958 -0.894427190999916
  outer loop
    vertex 0.0781249999999989 -0.708333333333332 0.812499999999999
    vertex 0.0 -0.833333333333333 0.874999999999999
    vertex 0.0 -0.708333333333332 0.812499999999999
  endloop
endfacet
facet normal 0.962098111336343 -0.272703546297151 -0.0
  outer loop
    vertex 0.499999999999999 -0.142333333333333 0.999999999999999
    vertex 0.374999999999999 -0.583333333333333 1.25
    vertex 0.374999999999999 -0.583333333333333 0.999999999999999
  endloop
endfacet
facet normal -3.90060984441987e-016 -0.894427190999917 0.447213595499956
  outer loop
    vertex 0.0 -0.583333333333333 1.5
    vertex -0.124999999999998 -0.708333333333332 1.25
    vertex 0.0 -0.708333333333332 1.25
  endloop
endfacet
facet normal -0.962098111336341 -0.272703546297157 0.0
  outer loop
    vertex -0.499999999999999 -0.142333333333333 0.999999999999999
    vertex -0.374999999999996 -0.583333333333333 0.999999999999999
    vertex -0.374999999999996 -0.583333333333333 1.25
  endloop
endfacet
facet normal 0.359943886683219 0.868981412923912 -0.339575768322976
  outer loop
    vertex 0.333962728800088 0.249685302266623 0.941440576205531
    vertex 0.176776695296638 0.0934433619633043 0.375
    vertex 0.0 0.166666666666668 0.375
  endloop
endfacet
facet normal 0.314484529288328 0.104856131832998 0.943453587864988
  outer loop
    vertex 0.374999999999999 -0.0833333333333331 1.5
    vertex 0.0 0.181108006398132 1.59560979327693
    vertex 0.0 -0.0833333333333331 1.625
  endloop
endfacet
facet normal 0.829561072408218 0.434973506993161 -0.350180632472724
  outer loop
    vertex 0.333962728800088 0.249685302266623 0.941440576205531
    vertex 0.374999999999999 -0.0833333333333331 0.625000000000001
    vertex 0.176776695296638 0.0934433619633043 0.375
  endloop
endfacet
facet normal 0.967334907086592 -0.247465205636807 -0.0549922679192902
  outer loop
    vertex 0.250000000000001 0.0 8.01482679704548e-032
    vertex 0.250000000000001 -0.0833333333333331 0.375
    vertex 0.204776695296637 -0.26011002862997 0.375
  endloop
endfacet
facet normal 0.456118339763583 0.351171091379553 0.817700999577845
  outer loop
    vertex 0.374999999999999 -0.0833333333333331 1.5
    vertex 0.307 0.240166666666667 1.399
    vertex 0.0 0.181108006398132 1.59560979327693
  endloop
endfacet
facet normal 0.447213595499959 -0.894427190999915 -6.50101640736626e-017
  outer loop
    vertex 0.125 -0.708333333333332 1.25
    vertex 0.374999999999999 -0.583333333333333 0.999999999999999
    vertex 0.374999999999999 -0.583333333333333 1.25
  endloop
endfacet
facet normal 0.958605410032747 -0.127338657018166 0.25467731403633
  outer loop
    vertex 0.374999999999999 -0.0833333333333331 1.5
    vertex 0.374999999999999 -0.583333333333333 1.25
    vertex 0.499999999999999 -0.142333333333333 0.999999999999999
  endloop
endfacet
facet normal 0.307692307692307 -0.230769230769229 0.923076923076924
  outer loop
    vertex 0.374999999999999 -0.0833333333333331 1.5
    vertex 0.0 -0.0833333333333331 1.625
    vertex 0.0 -0.583333333333333 1.5
  endloop
endfacet
facet normal 0.0 0.0 -1.0
  outer loop
    vertex 0.176776695296638 0.176776695296637 8.01482679704548e-032
    vertex 0.0 0.0 8.01482679704548e-032
    vertex 0.0 0.250000000000001 8.01482679704548e-032
  endloop
endfacet
facet normal 0.0 0.0 -1.0
  outer loop
    vertex 0.0 0.0 8.01482679704548e-032
    vertex 0.176776695296638 0.176776695296637 8.01482679704548e-032
    vertex 0.250000000000001 0.0 8.01482679704548e-032
  endloop
endfacet
facet normal 0.0 -0.894427190999917 0.447213595499956
  outer loop
    vertex 0.0 -0.583333333333333 1.5
    vertex 0.0 -0.708333333333332 1.25
    vertex 0.125 -0.708333333333332 1.25
  endloop
endfacet
facet normal 0.920556827204005 0.381307122763045 0.0847349161695655
  outer loop
    vertex 0.250000000000001 0.0 8.01482679704548e-032
    vertex 0.176776695296638 0.0934433619633043 0.375
    vertex 0.250000000000001 -0.0833333333333331 0.375
  endloop
endfacet
facet normal 0.920556827204005 0.381307122763045 0.0847349161695655
  outer loop
    vertex 0.176776695296638 0.0934433619633043 0.375
    vertex 0.250000000000001 0.0 8.01482679704548e-032
    vertex 0.176776695296638 0.176776695296637 8.01482679704548e-032
  endloop
endfacet
facet normal 0.871894022133015 -0.223049361601643 -0.435947011066498
  outer loop
    vertex 0.374999999999999 -0.0833333333333331 0.625000000000001
    vertex 0.204776695296637 -0.26011002862997 0.375
    vertex 0.250000000000001 -0.0833333333333331 0.375
  endloop
endfacet
facet normal 0.943033797585994 0.262174068251832 0.204821909342782
  outer loop
    vertex 0.307 0.240166666666667 1.399
    vertex 0.374999999999999 -0.0833333333333331 1.5
    vertex 0.499999999999999 -0.142333333333333 0.999999999999999
  endloop
endfacet
facet normal 0.543711194313257 0.722824639781931 -0.42650050094059
  outer loop
    vertex 0.333962728800088 0.249685302266623 0.941440576205531
    vertex 0.0 0.166666666666668 0.375
    vertex 0.0 0.41827218536637 0.801416072244173
  endloop
endfacet
facet normal 0.494657601974104 0.856241980818011 -0.148874198886435
  outer loop
    vertex 0.0 0.463666666666667 1.0625
    vertex 0.333962728800088 0.249685302266623 0.941440576205531
    vertex 0.0 0.41827218536637 0.801416072244173
  endloop
endfacet
facet normal 0.0 -1.0 0.0
  outer loop
    vertex 0.0781249999999989 -0.708333333333332 0.812499999999999
    vertex 0.0 -0.708333333333332 0.624999999999999
    vertex 0.125 -0.708333333333332 0.624999999999999
  endloop
endfacet
facet normal 0.0 -1.0 0.0
  outer loop
    vertex 0.0 -0.708333333333332 0.624999999999999
    vertex 0.0781249999999989 -0.708333333333332 0.812499999999999
    vertex 0.0 -0.708333333333332 0.812499999999999
  endloop
endfacet
facet normal 0.91311199413494 -0.378223371936236 -0.15222866710346
  outer loop
    vertex 0.250000000000001 0.0 8.01482679704548e-032
    vertex 0.204776695296637 -0.26011002862997 0.375
    vertex 0.176776695296638 -0.176776695296637 8.01482679704548e-032
  endloop
endfacet
facet normal 0.904741459236605 -0.255576683400169 -0.340768911200227
  outer loop
    vertex 0.374999999999999 -0.0833333333333331 0.625000000000001
    vertex 0.374999999999999 -0.583333333333333 0.999999999999999
    vertex 0.125 -0.668333333333332 0.4
  endloop
endfacet
facet normal 0.371390676354105 -0.742781352708208 0.557086014531154
  outer loop
    vertex 0.0 -0.583333333333333 1.5
    vertex 0.125 -0.708333333333332 1.25
    vertex 0.374999999999999 -0.583333333333333 1.25
  endloop
endfacet
facet normal 0.0 -1.0 0.0
  outer loop
    vertex 0.0 -0.708333333333332 1.25
    vertex 0.0 -0.708333333333332 1.125
    vertex 0.125 -0.708333333333332 1.25
  endloop
endfacet
facet normal 0.18848065145765 -0.341898808844258 -0.920641215966881
  outer loop
    vertex 0.125 -0.668333333333332 0.4
    vertex 0.0 -0.585012529055064 0.343466179588505
    vertex 0.0 -0.333333333333333 0.249999999999999
  endloop
endfacet
facet normal 0.318447454280449 0.647981418064198 0.691889659343029
  outer loop
    vertex 0.307 0.240166666666667 1.399
    vertex 0.0 0.416666666666667 1.375
    vertex 0.0 0.181108006398132 1.59560979327693
  endloop
endfacet
facet normal 0.447250830256314 -0.86545810954546 -0.225718753002573
  outer loop
    vertex 0.204776695296637 -0.26011002862997 0.375
    vertex 0.0 -0.333333333333333 0.249999999999999
    vertex 0.176776695296638 -0.176776695296637 8.01482679704548e-032
  endloop
endfacet
facet normal 0.904954555064213 0.346368377192262 -0.247156227009824
  outer loop
    vertex 0.333962728800088 0.249685302266623 0.941440576205531
    vertex 0.499999999999999 -0.142333333333333 0.999999999999999
    vertex 0.374999999999999 -0.0833333333333331 0.625000000000001
  endloop
endfacet
facet normal 0.486538619718352 0.863942452869183 0.129936944911525
  outer loop
    vertex 0.307 0.240166666666667 1.399
    vertex 0.0 0.463666666666667 1.0625
    vertex 0.0 0.416666666666667 1.375
  endloop
endfacet
facet normal 0.869648952951056 -0.197654329287521 -0.452375358242502
  outer loop
    vertex 0.374999999999999 -0.0833333333333331 0.625000000000001
    vertex 0.125 -0.668333333333332 0.4
    vertex 0.204776695296637 -0.26011002862997 0.375
  endloop
endfacet
facet normal 0.838716980803313 0.347407948441348 -0.419358490401647
  outer loop
    vertex 0.176776695296638 0.0934433619633043 0.375
    vertex 0.374999999999999 -0.0833333333333331 0.625000000000001
    vertex 0.250000000000001 -0.0833333333333331 0.375
  endloop
endfacet
facet normal 0.235702260395516 -0.942809041582063 -0.235702260395515
  outer loop
    vertex 0.125 -0.708333333333332 1.25
    vertex 0.0 -0.708333333333332 1.125
    vertex 0.374999999999999 -0.583333333333333 0.999999999999999
  endloop
endfacet
facet normal 0.365733277779734 -0.882958239427008 -0.294319413142336
  outer loop
    vertex 0.0 -0.333333333333333 0.249999999999999
    vertex 0.0 -0.249999999999999 8.01482679704548e-032
    vertex 0.176776695296638 -0.176776695296637 8.01482679704548e-032
  endloop
endfacet
facet normal 0.602465013423336 -0.78582393055217 -0.139702032098165
  outer loop
    vertex 0.374999999999999 -0.583333333333333 0.999999999999999
    vertex 0.125 -0.708333333333332 0.624999999999999
    vertex 0.125 -0.668333333333332 0.4
  endloop
endfacet
facet normal 0.3405026123035 -0.936382183834623 0.0851256530758749
  outer loop
    vertex 0.374999999999999 -0.583333333333333 0.999999999999999
    vertex 0.0781249999999989 -0.708333333333332 0.812499999999999
    vertex 0.125 -0.708333333333332 0.624999999999999
  endloop
endfacet
facet normal 0.3405026123035 -0.936382183834623 0.0851256530758749
  outer loop
    vertex 0.0781249999999989 -0.708333333333332 0.812499999999999
    vertex 0.374999999999999 -0.583333333333333 0.999999999999999
    vertex 0.0 -0.708333333333332 1.125
  endloop
endfacet
facet normal 0.512147519731586 -0.384110639798689 0.768221279597374
  outer loop
    vertex 0.374999999999999 -0.0833333333333331 1.5
    vertex 0.0 -0.583333333333333 1.5
    vertex 0.374999999999999 -0.583333333333333 1.25
  endloop
endfacet
facet normal -0.920556827204005 0.381307122763045 0.0847349161695655
  outer loop
    vertex -0.176776695296635 0.0934433619633043 0.375
    vertex -0.249999999999998 0.0 8.01482679704548e-032
    vertex -0.249999999999998 -0.0833333333333331 0.375
  endloop
endfacet
facet normal -0.920556827204005 0.381307122763045 0.0847349161695655
  outer loop
    vertex -0.249999999999998 0.0 8.01482679704548e-032
    vertex -0.176776695296635 0.0934433619633043 0.375
    vertex -0.176776695296635 0.176776695296637 8.01482679704548e-032
  endloop
endfacet
endsolid Untitled-54c31eb9
