ply
format ascii 1.0
comment Created by Blender 2.73 (sub 0) - www.blender.org, source file: 'lowerleg.blend'
element vertex 27
property float x
property float y
property float z
property float nx
property float ny
property float nz
property float s
property float t
element face 28
property list uchar uint vertex_indices
end_header
-0.375000 0.375000 0.155330 -0.630238 0.717277 0.297098 0.536101 0.940747
0.375000 0.375000 0.000000 0.706778 0.706778 -0.029023 0.422157 0.774857
-0.375000 0.375000 0.000000 -0.706778 0.706778 -0.029023 0.564806 0.910811
0.375000 0.375000 0.155330 0.630238 0.717277 0.297098 0.393286 0.803312
-0.375000 0.155330 0.375000 -0.630238 0.297098 0.717277 0.479174 0.999903
0.375000 0.155330 0.375000 0.630238 0.297098 0.717277 0.336359 0.862468
0.375000 -0.155330 0.375000 0.630238 -0.297098 0.717277 0.192883 0.710375
-0.375000 0.155330 0.375000 -0.630238 0.297098 0.717277 0.003628 0.608264
-0.375000 -0.155330 0.375000 -0.630238 -0.297098 0.717277 0.067445 0.556306
0.375000 0.155330 0.375000 0.630238 0.297098 0.717277 0.129066 0.762333
0.281250 -0.281250 -2.250000 0.566118 -0.566118 -0.599170 0.736363 0.241815
0.375000 -0.375000 0.000000 0.706778 -0.706778 -0.029023 0.287953 0.631087
0.281250 0.281250 -2.250000 0.566118 0.566118 -0.599170 0.839387 0.352040
-0.281250 -0.281250 -2.250000 -0.566118 -0.566118 -0.599170 0.641924 0.123987
-0.375000 -0.375000 0.000000 -0.706778 -0.706778 -0.029023 0.163572 0.479484
-0.375000 0.375000 0.000000 -0.706778 0.706778 -0.029023 0.047362 0.317715
-0.281250 0.281250 -2.250000 -0.566118 0.566118 -0.599170 0.557431 0.000097
-0.281250 -0.281250 -2.250000 -0.566118 -0.566118 -0.599170 0.846587 0.138791
-0.281250 0.281250 -2.250000 -0.566118 0.566118 -0.599170 0.949612 0.249015
-0.375000 -0.155330 0.375000 -0.630238 -0.297098 0.717277 0.049110 0.492734
-0.375000 -0.375000 0.155330 -0.630238 -0.717277 0.297098 0.131263 0.504348
-0.375000 0.155330 0.375000 -0.630238 0.297098 0.717277 0.000097 0.424868
-0.375000 0.375000 0.155330 -0.630238 0.717277 0.297098 0.013429 0.342222
0.375000 -0.375000 0.155330 0.630238 -0.717277 0.297098 0.256701 0.658417
0.375000 -0.155330 0.375000 0.630238 -0.297098 0.717277 0.254026 0.741761
0.375000 0.155330 0.375000 0.630238 0.297098 0.717277 0.311161 0.801868
-0.281250 0.281250 -2.250000 -0.566118 0.566118 -0.599170 0.949612 0.452747
3 0 1 2
3 1 0 3
3 4 3 0
3 3 4 5
3 6 7 8
3 7 6 9
3 10 1 11
3 1 10 12
3 11 13 10
3 13 11 14
3 15 13 14
3 13 15 16
3 12 17 18
3 17 12 10
3 19 14 20
3 14 19 15
3 15 19 21
3 15 21 22
3 6 20 23
3 20 6 8
3 23 14 11
3 14 23 20
3 1 23 11
3 23 1 24
3 24 1 25
3 25 1 3
3 2 12 26
3 12 2 1
