ply
format ascii 1.0
comment Created by Blender 2.73 (sub 0) - www.blender.org, source file: 'lowerarm.blend'
element vertex 27
property float x
property float y
property float z
property float nx
property float ny
property float nz
property float s
property float t
element face 28
property list uchar uint vertex_indices
end_header
-0.250000 0.250000 -0.000000 -0.706778 0.706778 -0.029023 0.370268 0.854298
-0.187500 -0.187500 -1.500000 -0.566118 -0.566118 -0.599170 0.101846 0.334122
-0.250000 -0.250000 0.000000 -0.706778 -0.706778 -0.029023 0.501677 0.723197
-0.187500 0.187500 -1.500000 -0.566118 0.566118 -0.599170 0.000094 0.430821
0.250000 -0.250000 0.103553 0.630238 -0.717277 0.297098 0.653896 0.610293
0.250000 -0.250000 0.000000 0.706778 -0.706778 -0.029023 0.623900 0.585397
-0.250000 -0.250000 0.103553 -0.630238 -0.717277 0.297098 0.529603 0.749639
-0.250000 -0.103553 0.250000 -0.630238 -0.297098 0.717277 0.529603 0.826961
-0.250000 0.103553 0.250000 -0.630238 0.297098 0.717277 0.474928 0.881636
-0.250000 0.250000 0.103553 -0.630238 0.717277 0.297098 0.397605 0.881636
0.187500 0.187500 -1.500000 0.566118 0.566118 -0.599170 0.283106 0.117204
-0.187500 -0.187500 -1.500000 -0.566118 -0.566118 -0.599170 0.084753 0.142596
-0.187500 0.187500 -1.500000 -0.566118 0.566118 -0.599170 0.171234 0.030724
0.187500 -0.187500 -1.500000 0.566118 -0.566118 -0.599170 0.196626 0.229076
-0.250000 0.250000 -0.000000 -0.706778 0.706778 -0.029023 0.841317 0.287238
-0.187500 0.187500 -1.500000 -0.566118 0.566118 -0.599170 0.359705 0.000094
0.250000 0.250000 -0.000000 0.706778 0.706778 -0.029023 0.736925 0.439643
0.250000 -0.103553 0.250000 0.630238 -0.297098 0.717277 0.894169 0.549693
-0.250000 0.103553 0.250000 -0.630238 0.297098 0.717277 0.936618 0.353104
-0.250000 -0.103553 0.250000 -0.630238 -0.297098 0.717277 0.999906 0.396902
0.250000 0.103553 0.250000 0.630238 0.297098 0.717277 0.830880 0.505896
0.250000 -0.103553 0.250000 0.630238 -0.297098 0.717277 0.711615 0.661777
-0.250000 -0.103553 0.250000 -0.630238 -0.297098 0.717277 0.587321 0.801123
0.250000 -0.103553 0.250000 0.630238 -0.297098 0.717277 0.731476 0.600275
0.250000 0.103553 0.250000 0.630238 0.297098 0.717277 0.778570 0.538355
0.250000 0.250000 0.103553 0.630238 0.717277 0.297098 0.767592 0.462098
-0.250000 0.250000 0.103553 -0.630238 0.717277 0.297098 0.873329 0.309306
3 0 1 2
3 1 0 3
3 4 2 5
3 2 4 6
3 6 0 2
3 0 6 7
3 0 7 8
3 0 8 9
3 10 11 12
3 11 10 13
3 14 10 15
3 10 14 16
3 13 16 5
3 16 13 10
3 17 18 19
3 18 17 20
3 21 6 4
3 6 21 22
3 16 4 5
3 4 16 23
3 23 16 24
3 24 16 25
3 5 1 13
3 1 5 2
3 26 16 14
3 16 26 25
3 20 26 18
3 26 20 25
