solid Untitled-54c42122
facet normal -0.999133073092352 -4.69008732351561e-017 -0.0416305447121815
  outer loop
    vertex -0.25 0.25 -7.21911419532262e-016
    vertex -0.1875 -0.1875 -1.5
    vertex -0.25 -0.25 7.21911419532262e-016
  endloop
endfacet
facet normal -0.999133073092352 -4.69008732351561e-017 -0.0416305447121815
  outer loop
    vertex -0.1875 -0.1875 -1.5
    vertex -0.25 0.25 -7.21911419532262e-016
    vertex -0.1875 0.187500000000001 -1.5
  endloop
endfacet
facet normal 0.0 -1.0 6.97139335946734e-015
  outer loop
    vertex 0.250000000000002 -0.249999999999999 0.103553390593272
    vertex -0.25 -0.25 7.21911419532262e-016
    vertex 0.250000000000002 -0.25 7.21911419532262e-016
  endloop
endfacet
facet normal 0.0 -1.0 6.97139335946734e-015
  outer loop
    vertex -0.25 -0.25 7.21911419532262e-016
    vertex 0.250000000000002 -0.249999999999999 0.103553390593272
    vertex -0.25 -0.249999999999999 0.103553390593272
  endloop
endfacet
facet normal -1.0 0.0 0.0
  outer loop
    vertex -0.25 -0.249999999999999 0.103553390593272
    vertex -0.25 0.25 -7.21911419532262e-016
    vertex -0.25 -0.25 7.21911419532262e-016
  endloop
endfacet
facet normal -1.0 0.0 0.0
  outer loop
    vertex -0.25 0.25 -7.21911419532262e-016
    vertex -0.25 -0.249999999999999 0.103553390593272
    vertex -0.25 -0.103553390593275 0.249999999999999
  endloop
endfacet
facet normal -1.0 0.0 0.0
  outer loop
    vertex -0.25 0.25 -7.21911419532262e-016
    vertex -0.25 -0.103553390593275 0.249999999999999
    vertex -0.25 0.103553390593274 0.249999999999999
  endloop
endfacet
facet normal -1.0 0.0 0.0
  outer loop
    vertex -0.25 0.25 -7.21911419532262e-016
    vertex -0.25 0.103553390593274 0.249999999999999
    vertex -0.25 0.250000000000001 0.103553390593273
  endloop
endfacet
facet normal 0.0 1.9250971187527e-015 -1.0
  outer loop
    vertex 0.187500000000002 0.187500000000001 -1.5
    vertex -0.1875 -0.1875 -1.5
    vertex -0.1875 0.187500000000001 -1.5
  endloop
endfacet
facet normal 0.0 1.9250971187527e-015 -1.0
  outer loop
    vertex -0.1875 -0.1875 -1.5
    vertex 0.187500000000002 0.187500000000001 -1.5
    vertex 0.187500000000002 -0.1875 -1.5
  endloop
endfacet
facet normal -1.95420305146462e-018 0.999133073092352 -0.0416305447121805
  outer loop
    vertex -0.25 0.25 -7.21911419532262e-016
    vertex 0.187500000000002 0.187500000000001 -1.5
    vertex -0.1875 0.187500000000001 -1.5
  endloop
endfacet
facet normal -1.95420305146462e-018 0.999133073092352 -0.0416305447121805
  outer loop
    vertex 0.187500000000002 0.187500000000001 -1.5
    vertex -0.25 0.25 -7.21911419532262e-016
    vertex 0.250000000000002 0.25 -7.21911419532262e-016
  endloop
endfacet
facet normal 0.999133073092352 -5.86260915439444e-017 -0.0416305447121815
  outer loop
    vertex 0.187500000000002 -0.1875 -1.5
    vertex 0.250000000000002 0.25 -7.21911419532262e-016
    vertex 0.250000000000002 -0.25 7.21911419532262e-016
  endloop
endfacet
facet normal 0.999133073092352 -5.86260915439444e-017 -0.0416305447121815
  outer loop
    vertex 0.250000000000002 0.25 -7.21911419532262e-016
    vertex 0.187500000000002 -0.1875 -1.5
    vertex 0.187500000000002 0.187500000000001 -1.5
  endloop
endfacet
facet normal -0.0 2.88764567812905e-015 1.0
  outer loop
    vertex 0.250000000000002 -0.25 7.21911419532262e-016
    vertex -0.25 0.25 -7.21911419532262e-016
    vertex -0.25 -0.25 7.21911419532262e-016
  endloop
endfacet
facet normal -0.0 2.88764567812905e-015 1.0
  outer loop
    vertex -0.25 0.25 -7.21911419532262e-016
    vertex 0.250000000000002 -0.25 7.21911419532262e-016
    vertex 0.250000000000002 0.25 -7.21911419532262e-016
  endloop
endfacet
facet normal -0.0 -3.48569667973357e-015 1.0
  outer loop
    vertex 0.250000000000002 -0.103553390593275 0.249999999999999
    vertex -0.25 0.103553390593274 0.249999999999999
    vertex -0.25 -0.103553390593275 0.249999999999999
  endloop
endfacet
facet normal -0.0 -3.48569667973357e-015 1.0
  outer loop
    vertex -0.25 0.103553390593274 0.249999999999999
    vertex 0.250000000000002 -0.103553390593275 0.249999999999999
    vertex 0.250000000000002 0.103553390593274 0.249999999999999
  endloop
endfacet
facet normal 0.0 -0.707106781186552 0.707106781186542
  outer loop
    vertex 0.250000000000002 -0.103553390593275 0.249999999999999
    vertex -0.25 -0.249999999999999 0.103553390593272
    vertex 0.250000000000002 -0.249999999999999 0.103553390593272
  endloop
endfacet
facet normal 0.0 -0.707106781186552 0.707106781186542
  outer loop
    vertex -0.25 -0.249999999999999 0.103553390593272
    vertex 0.250000000000002 -0.103553390593275 0.249999999999999
    vertex -0.25 -0.103553390593275 0.249999999999999
  endloop
endfacet
facet normal 1.0 -0.0 -0.0
  outer loop
    vertex 0.250000000000002 0.25 -7.21911419532262e-016
    vertex 0.250000000000002 -0.249999999999999 0.103553390593272
    vertex 0.250000000000002 -0.25 7.21911419532262e-016
  endloop
endfacet
facet normal 1.0 -0.0 -0.0
  outer loop
    vertex 0.250000000000002 -0.249999999999999 0.103553390593272
    vertex 0.250000000000002 0.25 -7.21911419532262e-016
    vertex 0.250000000000002 -0.103553390593275 0.249999999999999
  endloop
endfacet
facet normal 1.0 -0.0 -0.0
  outer loop
    vertex 0.250000000000002 -0.103553390593275 0.249999999999999
    vertex 0.250000000000002 0.25 -7.21911419532262e-016
    vertex 0.250000000000002 0.103553390593274 0.249999999999999
  endloop
endfacet
facet normal 1.0 -0.0 -0.0
  outer loop
    vertex 0.250000000000002 0.103553390593274 0.249999999999999
    vertex 0.250000000000002 0.25 -7.21911419532262e-016
    vertex 0.250000000000002 0.250000000000001 0.103553390593273
  endloop
endfacet
facet normal -1.95420305146479e-018 -0.999133073092352 -0.0416305447121814
  outer loop
    vertex 0.250000000000002 -0.25 7.21911419532262e-016
    vertex -0.1875 -0.1875 -1.5
    vertex 0.187500000000002 -0.1875 -1.5
  endloop
endfacet
facet normal -1.95420305146479e-018 -0.999133073092352 -0.0416305447121814
  outer loop
    vertex -0.1875 -0.1875 -1.5
    vertex 0.250000000000002 -0.25 7.21911419532262e-016
    vertex -0.25 -0.25 7.21911419532262e-016
  endloop
endfacet
facet normal -0.0 1.0 -6.97139335946719e-015
  outer loop
    vertex -0.25 0.250000000000001 0.103553390593273
    vertex 0.250000000000002 0.25 -7.21911419532262e-016
    vertex -0.25 0.25 -7.21911419532262e-016
  endloop
endfacet
facet normal -0.0 1.0 -6.97139335946719e-015
  outer loop
    vertex 0.250000000000002 0.25 -7.21911419532262e-016
    vertex -0.25 0.250000000000001 0.103553390593273
    vertex 0.250000000000002 0.250000000000001 0.103553390593273
  endloop
endfacet
facet normal -0.0 0.707106781186547 0.707106781186548
  outer loop
    vertex 0.250000000000002 0.103553390593274 0.249999999999999
    vertex -0.25 0.250000000000001 0.103553390593273
    vertex -0.25 0.103553390593274 0.249999999999999
  endloop
endfacet
facet normal -0.0 0.707106781186547 0.707106781186548
  outer loop
    vertex -0.25 0.250000000000001 0.103553390593273
    vertex 0.250000000000002 0.103553390593274 0.249999999999999
    vertex 0.250000000000002 0.250000000000001 0.103553390593273
  endloop
endfacet
endsolid Untitled-54c42122
