ply
format ascii 1.0
comment Created by Blender 2.73 (sub 0) - www.blender.org, source file: ''
element vertex 32
property float x
property float y
property float z
property float nx
property float ny
property float nz
property float s
property float t
element face 42
property list uchar uint vertex_indices
end_header
0.750000 -0.500000 0.750000 0.753044 -0.651387 -0.092410 0.642820 0.348744
1.000000 0.500000 2.250000 0.743889 0.668081 0.016114 0.832398 0.599580
1.000000 -0.625000 2.250000 0.734123 -0.678976 0.002838 0.656392 0.606603
0.750000 0.500000 0.750000 0.743217 0.666738 -0.055422 0.832312 0.334554
1.000000 -0.500000 2.750000 0.651967 -0.466720 0.597552 0.668529 0.694755
0.000000 0.500000 2.875000 0.000000 0.633839 0.773431 0.500145 0.889980
0.000000 -0.625000 2.875000 0.000000 -0.638813 0.769341 0.498140 0.701247
0.000000 0.625000 2.250000 0.000000 0.995880 0.090518 0.999906 0.589874
1.000000 0.375000 2.750000 0.655721 0.459090 0.599353 0.680840 0.853170
0.000000 -0.750000 2.250000 0.000000 -0.997955 0.063448 0.499719 0.604077
0.750000 0.500000 0.000000 0.617969 0.523484 -0.586535 0.817570 0.197670
0.000000 0.625000 0.000000 0.000000 0.740623 -0.671896 0.955212 0.182566
1.000000 0.375000 2.750000 0.655721 0.459090 0.599353 0.823215 0.684216
0.000000 -0.625000 0.000000 0.000000 -0.740623 -0.671896 0.505335 0.218596
0.750000 -0.500000 0.000000 0.617969 -0.523484 -0.586535 0.636001 0.208700
0.000000 -0.625000 0.750000 0.000000 -0.998718 -0.050417 0.502332 0.346493
0.000000 0.500000 2.875000 0.000000 0.633839 0.773431 0.999906 0.704731
0.750000 0.500000 0.000000 0.617969 0.523484 -0.586535 0.642440 0.025149
0.000000 0.625000 0.000000 0.000000 0.740623 -0.671896 0.502291 0.000094
-1.000000 -0.500000 2.750000 -0.651967 -0.466720 0.597552 0.329529 0.689262
0.000000 0.625000 2.250000 0.000000 0.995880 0.090518 0.003602 0.575427
-0.750000 0.500000 0.750000 -0.743217 0.666738 -0.055422 0.177667 0.331229
-1.000000 0.500000 2.250000 -0.743889 0.668081 0.016114 0.169865 0.590427
-0.750000 -0.500000 0.750000 -0.753044 -0.651387 -0.092410 0.364331 0.344321
-1.000000 -0.625000 2.250000 -0.734123 -0.678976 0.002838 0.344022 0.602102
-1.000000 0.375000 2.750000 -0.655721 0.459090 0.599353 0.310184 0.852929
-1.000000 0.375000 2.750000 -0.655721 0.459090 0.599353 0.176515 0.674635
0.000000 0.625000 0.000000 0.000000 0.740623 -0.671896 0.058958 0.178142
-0.750000 0.500000 0.000000 -0.617969 0.523484 -0.586535 0.192220 0.194392
-0.750000 -0.500000 0.000000 -0.617969 -0.523484 -0.586535 0.372101 0.208170
0.000000 0.500000 2.875000 0.000000 0.633839 0.773431 0.000094 0.689699
-0.750000 0.500000 0.000000 -0.617969 0.523484 -0.586535 0.366854 0.026712
3 0 1 2
3 1 0 3
3 4 5 6
3 1 3 7
3 5 4 8
3 6 9 4
3 7 10 11
3 10 7 3
3 1 4 2
3 4 1 12
3 0 13 14
3 13 0 15
3 4 9 2
3 16 12 1
3 9 15 2
3 16 1 7
3 17 13 18
3 13 17 14
3 10 0 14
3 0 10 3
3 2 15 0
3 6 19 9
3 20 21 22
3 22 23 24
3 23 22 21
3 6 25 19
3 25 6 5
3 19 24 9
3 19 22 24
3 22 19 26
3 21 27 28
3 27 21 20
3 15 29 13
3 29 15 23
3 21 29 23
3 29 21 28
3 30 20 22
3 18 29 31
3 29 18 13
3 30 22 26
3 24 23 15
3 24 15 9
