<?xml version="1.0" standalone="no"?>
<!DOCTYPE svg PUBLIC "-//W3C//DTD SVG 1.1//EN" 
  "http://www.w3.org/Graphics/SVG/1.1/DTD/svg11.dtd">
<svg width="1024" height="1024" viewBox="0 0 1024 1024"
     xmlns="http://www.w3.org/2000/svg" version="1.1">
<desc>'', Torso, (Blender 2.73 (sub 0))</desc>
<polygon stroke="black" stroke-width="1" fill="grey" fill-opacity="0.25" points="658.248,666.886 852.375,410.030 672.145,402.839 " />
<polygon stroke="black" stroke-width="1" fill="grey" fill-opacity="0.25" points="852.375,410.030 658.248,666.886 852.287,681.417 " />
<polygon stroke="black" stroke-width="1" fill="grey" fill-opacity="0.25" points="684.574,312.570 512.149,112.660 510.095,305.924 " />
<polygon stroke="black" stroke-width="1" fill="grey" fill-opacity="0.25" points="852.375,410.030 852.287,681.417 1023.903,419.969 " />
<polygon stroke="black" stroke-width="1" fill="grey" fill-opacity="0.25" points="512.149,112.660 684.574,312.570 697.181,150.354 " />
<polygon stroke="black" stroke-width="1" fill="grey" fill-opacity="0.25" points="510.095,305.924 511.713,405.426 684.574,312.570 " />
<polygon stroke="black" stroke-width="1" fill="grey" fill-opacity="0.25" points="1023.903,419.969 837.191,821.586 978.137,837.052 " />
<polygon stroke="black" stroke-width="1" fill="grey" fill-opacity="0.25" points="837.191,821.586 1023.903,419.969 852.287,681.417 " />
<polygon stroke="black" stroke-width="1" fill="grey" fill-opacity="0.25" points="852.375,410.030 684.574,312.570 672.145,402.839 " />
<polygon stroke="black" stroke-width="1" fill="grey" fill-opacity="0.25" points="684.574,312.570 852.375,410.030 842.973,323.362 " />
<polygon stroke="black" stroke-width="1" fill="grey" fill-opacity="0.25" points="658.248,666.886 517.463,800.158 651.265,810.291 " />
<polygon stroke="black" stroke-width="1" fill="grey" fill-opacity="0.25" points="517.463,800.158 658.248,666.886 514.388,669.191 " />
<polygon stroke="black" stroke-width="1" fill="grey" fill-opacity="0.25" points="684.574,312.570 511.713,405.426 672.145,402.839 " />
<polygon stroke="black" stroke-width="1" fill="grey" fill-opacity="0.25" points="1023.903,302.355 842.973,323.362 852.375,410.030 " />
<polygon stroke="black" stroke-width="1" fill="grey" fill-opacity="0.25" points="511.713,405.426 514.388,669.191 672.145,402.839 " />
<polygon stroke="black" stroke-width="1" fill="grey" fill-opacity="0.25" points="1023.903,302.355 852.375,410.030 1023.903,419.969 " />
<polygon stroke="black" stroke-width="1" fill="grey" fill-opacity="0.25" points="657.859,998.247 517.463,800.158 514.346,1023.903 " />
<polygon stroke="black" stroke-width="1" fill="grey" fill-opacity="0.25" points="517.463,800.158 657.859,998.247 651.265,810.291 " />
<polygon stroke="black" stroke-width="1" fill="grey" fill-opacity="0.25" points="837.191,821.586 658.248,666.886 651.265,810.291 " />
<polygon stroke="black" stroke-width="1" fill="grey" fill-opacity="0.25" points="658.248,666.886 837.191,821.586 852.287,681.417 " />
<polygon stroke="black" stroke-width="1" fill="grey" fill-opacity="0.25" points="672.145,402.839 514.388,669.191 658.248,666.886 " />
<polygon stroke="black" stroke-width="1" fill="grey" fill-opacity="0.25" points="510.095,305.924 337.438,318.195 511.713,405.426 " />
<polygon stroke="black" stroke-width="1" fill="grey" fill-opacity="0.25" points="3.688,434.763 181.931,684.821 173.942,419.403 " />
<polygon stroke="black" stroke-width="1" fill="grey" fill-opacity="0.25" points="173.942,419.403 373.075,671.415 352.278,407.447 " />
<polygon stroke="black" stroke-width="1" fill="grey" fill-opacity="0.25" points="373.075,671.415 173.942,419.403 181.931,684.821 " />
<polygon stroke="black" stroke-width="1" fill="grey" fill-opacity="0.25" points="510.095,305.924 317.628,150.601 337.438,318.195 " />
<polygon stroke="black" stroke-width="1" fill="grey" fill-opacity="0.25" points="317.628,150.601 510.095,305.924 512.149,112.660 " />
<polygon stroke="black" stroke-width="1" fill="grey" fill-opacity="0.25" points="337.438,318.195 352.278,407.447 511.713,405.426 " />
<polygon stroke="black" stroke-width="1" fill="grey" fill-opacity="0.25" points="337.438,318.195 173.942,419.403 352.278,407.447 " />
<polygon stroke="black" stroke-width="1" fill="grey" fill-opacity="0.25" points="173.942,419.403 337.438,318.195 180.752,333.174 " />
<polygon stroke="black" stroke-width="1" fill="grey" fill-opacity="0.25" points="181.931,684.821 60.373,841.582 196.833,824.943 " />
<polygon stroke="black" stroke-width="1" fill="grey" fill-opacity="0.25" points="60.373,841.582 181.931,684.821 3.688,434.763 " />
<polygon stroke="black" stroke-width="1" fill="grey" fill-opacity="0.25" points="514.388,669.191 381.031,810.834 517.463,800.158 " />
<polygon stroke="black" stroke-width="1" fill="grey" fill-opacity="0.25" points="381.031,810.834 514.388,669.191 373.075,671.415 " />
<polygon stroke="black" stroke-width="1" fill="grey" fill-opacity="0.25" points="181.931,684.821 381.031,810.834 373.075,671.415 " />
<polygon stroke="black" stroke-width="1" fill="grey" fill-opacity="0.25" points="381.031,810.834 181.931,684.821 196.833,824.943 " />
<polygon stroke="black" stroke-width="1" fill="grey" fill-opacity="0.25" points="0.097,317.748 3.688,434.763 173.942,419.403 " />
<polygon stroke="black" stroke-width="1" fill="grey" fill-opacity="0.25" points="514.346,1023.903 381.031,810.834 375.658,996.647 " />
<polygon stroke="black" stroke-width="1" fill="grey" fill-opacity="0.25" points="381.031,810.834 514.346,1023.903 517.463,800.158 " />
<polygon stroke="black" stroke-width="1" fill="grey" fill-opacity="0.25" points="0.097,317.748 173.942,419.403 180.752,333.174 " />
<polygon stroke="black" stroke-width="1" fill="grey" fill-opacity="0.25" points="352.278,407.447 373.075,671.415 514.388,669.191 " />
<polygon stroke="black" stroke-width="1" fill="grey" fill-opacity="0.25" points="352.278,407.447 514.388,669.191 511.713,405.426 " />

</svg>
