solid Untitled-54c420d5
facet normal -5.46249489155585e-017 0.99913282284316 -0.0416365502588584
  outer loop
    vertex 0.0 0.3125 7.21911419532262e-016
    vertex 0.499999999999999 0.250000000000001 -1.49978326829348
    vertex 0.0 0.250000000000001 -1.49978326829348
  endloop
endfacet
facet normal -5.46249489155585e-017 0.99913282284316 -0.0416365502588584
  outer loop
    vertex 0.499999999999999 0.250000000000001 -1.49978326829348
    vertex 0.0 0.3125 7.21911419532262e-016
    vertex 0.562500000000005 0.3125 -7.21911419532262e-016
  endloop
endfacet
facet normal -1.0 0.0 0.0
  outer loop
    vertex 0.0 -0.250000000000003 0.249999999999999
    vertex 0.0 0.3125 7.21911419532262e-016
    vertex 0.0 -0.312500000000002 -7.21911419532262e-016
  endloop
endfacet
facet normal -1.0 0.0 0.0
  outer loop
    vertex 0.0 0.3125 7.21911419532262e-016
    vertex 0.0 -0.250000000000003 0.249999999999999
    vertex 0.0 0.25 0.249999999999999
  endloop
endfacet
facet normal 0.0 -0.707106781186539 -0.707106781186556
  outer loop
    vertex 0.499999999999999 -0.103553390593273 -1.74978326829348
    vertex 2.88764567812905e-015 -0.250000000000003 -1.60333665888675
    vertex 2.88764567812905e-015 -0.103553390593273 -1.74978326829348
  endloop
endfacet
facet normal 0.0 -0.707106781186539 -0.707106781186556
  outer loop
    vertex 2.88764567812905e-015 -0.250000000000003 -1.60333665888675
    vertex 0.499999999999999 -0.103553390593273 -1.74978326829348
    vertex 0.499999999999999 -0.250000000000003 -1.60333665888675
  endloop
endfacet
facet normal -1.0 -3.76109660225961e-015 -5.39208749649508e-015
  outer loop
    vertex 0.0 0.250000000000001 -1.49978326829348
    vertex 2.88764567812905e-015 -0.250000000000003 -1.60333665888675
    vertex 0.0 -0.250000000000003 -1.49978326829348
  endloop
endfacet
facet normal -1.0 -3.76109660225961e-015 -5.39208749649508e-015
  outer loop
    vertex 2.88764567812905e-015 -0.250000000000003 -1.60333665888675
    vertex 0.0 0.250000000000001 -1.49978326829348
    vertex 2.88764567812905e-015 -0.103553390593273 -1.74978326829348
  endloop
endfacet
facet normal -1.0 -3.76109660225961e-015 -5.39208749649508e-015
  outer loop
    vertex 2.88764567812905e-015 -0.103553390593273 -1.74978326829348
    vertex 0.0 0.250000000000001 -1.49978326829348
    vertex 0.0 0.103553390593274 -1.74978326829347
  endloop
endfacet
facet normal -1.0 -3.76109660225961e-015 -5.39208749649508e-015
  outer loop
    vertex 0.0 0.103553390593274 -1.74978326829347
    vertex 0.0 0.250000000000001 -1.49978326829348
    vertex 0.0 0.25 -1.60333665888675
  endloop
endfacet
facet normal -3.05346918818257e-015 0.707106781186547 -0.707106781186547
  outer loop
    vertex 0.0 0.103553390593274 -1.74978326829347
    vertex 0.499999999999999 0.250000000000001 -1.60333665888675
    vertex 0.499999999999999 0.103553390593275 -1.74978326829348
  endloop
endfacet
facet normal -3.05346918818257e-015 0.707106781186547 -0.707106781186547
  outer loop
    vertex 0.499999999999999 0.250000000000001 -1.60333665888675
    vertex 0.0 0.103553390593274 -1.74978326829347
    vertex 0.0 0.25 -1.60333665888675
  endloop
endfacet
facet normal -7.21911419532271e-016 5.22854501960039e-015 -1.0
  outer loop
    vertex 0.499999999999999 0.103553390593275 -1.74978326829348
    vertex 2.88764567812905e-015 -0.103553390593273 -1.74978326829348
    vertex 0.0 0.103553390593274 -1.74978326829347
  endloop
endfacet
facet normal -7.21911419532271e-016 5.22854501960039e-015 -1.0
  outer loop
    vertex 2.88764567812905e-015 -0.103553390593273 -1.74978326829348
    vertex 0.499999999999999 0.103553390593275 -1.74978326829348
    vertex 0.499999999999999 -0.103553390593273 -1.74978326829348
  endloop
endfacet
facet normal 0.99913282284316 4.48512630939547e-015 -0.041636550258862
  outer loop
    vertex 0.500000000000005 -0.250000000000003 -1.49978326829348
    vertex 0.562500000000005 0.3125 -7.21911419532262e-016
    vertex 0.562500000000005 -0.312500000000002 -7.21911419532262e-016
  endloop
endfacet
facet normal 0.99913282284316 4.48512630939547e-015 -0.041636550258862
  outer loop
    vertex 0.562500000000005 0.3125 -7.21911419532262e-016
    vertex 0.500000000000005 -0.250000000000003 -1.49978326829348
    vertex 0.499999999999999 1.08286712929839e-015 -1.49978326829348
  endloop
endfacet
facet normal 0.99913282284316 4.48512630939547e-015 -0.041636550258862
  outer loop
    vertex 0.562500000000005 0.3125 -7.21911419532262e-016
    vertex 0.499999999999999 1.08286712929839e-015 -1.49978326829348
    vertex 0.499999999999999 0.250000000000001 -1.49978326829348
  endloop
endfacet
facet normal -1.0 0.0 0.0
  outer loop
    vertex 0.0 0.3125 7.21911419532262e-016
    vertex 0.0 -0.250000000000003 -1.49978326829348
    vertex 0.0 -0.312500000000002 -7.21911419532262e-016
  endloop
endfacet
facet normal -1.0 0.0 0.0
  outer loop
    vertex 0.0 -0.250000000000003 -1.49978326829348
    vertex 0.0 0.3125 7.21911419532262e-016
    vertex 0.0 0.250000000000001 -1.49978326829348
  endloop
endfacet
facet normal -1.44382283906454e-015 1.0 -6.97139335946724e-015
  outer loop
    vertex 0.0 0.25 -1.60333665888675
    vertex 0.499999999999999 0.250000000000001 -1.49978326829348
    vertex 0.499999999999999 0.250000000000001 -1.60333665888675
  endloop
endfacet
facet normal -1.44382283906454e-015 1.0 -6.97139335946724e-015
  outer loop
    vertex 0.499999999999999 0.250000000000001 -1.49978326829348
    vertex 0.0 0.25 -1.60333665888675
    vertex 0.0 0.250000000000001 -1.49978326829348
  endloop
endfacet
facet normal 0.0 -1.0 0.0
  outer loop
    vertex 0.500000000000005 -0.250000000000003 -1.49978326829348
    vertex 2.88764567812905e-015 -0.250000000000003 -1.60333665888675
    vertex 0.499999999999999 -0.250000000000003 -1.60333665888675
  endloop
endfacet
facet normal 0.0 -1.0 0.0
  outer loop
    vertex 2.88764567812905e-015 -0.250000000000003 -1.60333665888675
    vertex 0.500000000000005 -0.250000000000003 -1.49978326829348
    vertex 0.0 -0.250000000000003 -1.49978326829348
  endloop
endfacet
facet normal 0.894427190999915 -6.40027666705191e-018 0.44721359549996
  outer loop
    vertex 0.562500000000005 0.3125 -7.21911419532262e-016
    vertex 0.437500000000004 -0.250000000000003 0.249999999999999
    vertex 0.562500000000005 -0.312500000000002 -7.21911419532262e-016
  endloop
endfacet
facet normal 0.894427190999915 -6.40027666705191e-018 0.44721359549996
  outer loop
    vertex 0.437500000000004 -0.250000000000003 0.249999999999999
    vertex 0.562500000000005 0.3125 -7.21911419532262e-016
    vertex 0.437500000000004 0.25 0.249999999999999
  endloop
endfacet
facet normal -1.28339807916845e-015 1.15505827125162e-015 -1.0
  outer loop
    vertex 0.562500000000005 0.3125 -7.21911419532262e-016
    vertex 0.0 -0.312500000000002 -7.21911419532262e-016
    vertex 0.0 0.3125 7.21911419532262e-016
  endloop
endfacet
facet normal -1.28339807916845e-015 1.15505827125162e-015 -1.0
  outer loop
    vertex 0.0 -0.312500000000002 -7.21911419532262e-016
    vertex 0.562500000000005 0.3125 -7.21911419532262e-016
    vertex 0.562500000000005 -0.312500000000002 -7.21911419532262e-016
  endloop
endfacet
facet normal -0.0 -0.0 1.0
  outer loop
    vertex 0.437500000000004 -0.250000000000003 0.249999999999999
    vertex 0.0 0.25 0.249999999999999
    vertex 0.0 -0.250000000000003 0.249999999999999
  endloop
endfacet
facet normal -0.0 -0.0 1.0
  outer loop
    vertex 0.0 0.25 0.249999999999999
    vertex 0.437500000000004 -0.250000000000003 0.249999999999999
    vertex 0.437500000000004 0.25 0.249999999999999
  endloop
endfacet
facet normal 3.84750165982277e-016 0.970142500145331 0.242535625036335
  outer loop
    vertex 0.0 0.3125 7.21911419532262e-016
    vertex 0.437500000000004 0.25 0.249999999999999
    vertex 0.562500000000005 0.3125 -7.21911419532262e-016
  endloop
endfacet
facet normal 3.84750165982277e-016 0.970142500145331 0.242535625036335
  outer loop
    vertex 0.437500000000004 0.25 0.249999999999999
    vertex 0.0 0.3125 7.21911419532262e-016
    vertex 0.0 0.25 0.249999999999999
  endloop
endfacet
facet normal 2.40637139844086e-016 -1.44382283906451e-015 -1.0
  outer loop
    vertex 0.499999999999999 0.250000000000001 -1.49978326829348
    vertex 0.0 -0.250000000000003 -1.49978326829348
    vertex 0.0 0.250000000000001 -1.49978326829348
  endloop
endfacet
facet normal 2.40637139844086e-016 -1.44382283906451e-015 -1.0
  outer loop
    vertex 0.0 -0.250000000000003 -1.49978326829348
    vertex 0.499999999999999 0.250000000000001 -1.49978326829348
    vertex 0.499999999999999 1.08286712929839e-015 -1.49978326829348
  endloop
endfacet
facet normal 2.40637139844086e-016 -1.44382283906451e-015 -1.0
  outer loop
    vertex 0.0 -0.250000000000003 -1.49978326829348
    vertex 0.499999999999999 1.08286712929839e-015 -1.49978326829348
    vertex 0.500000000000005 -0.250000000000003 -1.49978326829348
  endloop
endfacet
facet normal 1.18749888946865e-018 -0.99913282284316 -0.0416365502588585
  outer loop
    vertex 0.562500000000005 -0.312500000000002 -7.21911419532262e-016
    vertex 0.0 -0.250000000000003 -1.49978326829348
    vertex 0.500000000000005 -0.250000000000003 -1.49978326829348
  endloop
endfacet
facet normal 1.18749888946865e-018 -0.99913282284316 -0.0416365502588585
  outer loop
    vertex 0.0 -0.250000000000003 -1.49978326829348
    vertex 0.562500000000005 -0.312500000000002 -7.21911419532262e-016
    vertex 0.0 -0.312500000000002 -7.21911419532262e-016
  endloop
endfacet
facet normal 1.0 5.31899382431091e-015 -7.77669666694474e-015
  outer loop
    vertex 0.499999999999999 -0.103553390593273 -1.74978326829348
    vertex 0.500000000000005 -0.250000000000003 -1.49978326829348
    vertex 0.499999999999999 -0.250000000000003 -1.60333665888675
  endloop
endfacet
facet normal 1.0 5.31899382431091e-015 -7.77669666694474e-015
  outer loop
    vertex 0.500000000000005 -0.250000000000003 -1.49978326829348
    vertex 0.499999999999999 -0.103553390593273 -1.74978326829348
    vertex 0.499999999999999 1.08286712929839e-015 -1.49978326829348
  endloop
endfacet
facet normal 1.0 5.31899382431091e-015 -7.77669666694474e-015
  outer loop
    vertex 0.499999999999999 1.08286712929839e-015 -1.49978326829348
    vertex 0.499999999999999 -0.103553390593273 -1.74978326829348
    vertex 0.499999999999999 0.103553390593275 -1.74978326829348
  endloop
endfacet
facet normal 1.0 5.31899382431091e-015 -7.77669666694474e-015
  outer loop
    vertex 0.499999999999999 1.08286712929839e-015 -1.49978326829348
    vertex 0.499999999999999 0.103553390593275 -1.74978326829348
    vertex 0.499999999999999 0.250000000000001 -1.49978326829348
  endloop
endfacet
facet normal 1.0 5.31899382431091e-015 -7.77669666694474e-015
  outer loop
    vertex 0.499999999999999 0.250000000000001 -1.49978326829348
    vertex 0.499999999999999 0.103553390593275 -1.74978326829348
    vertex 0.499999999999999 0.250000000000001 -1.60333665888675
  endloop
endfacet
facet normal 5.78571678168834e-018 -0.970142500145333 0.242535625036329
  outer loop
    vertex 0.437500000000004 -0.250000000000003 0.249999999999999
    vertex 0.0 -0.312500000000002 -7.21911419532262e-016
    vertex 0.562500000000005 -0.312500000000002 -7.21911419532262e-016
  endloop
endfacet
facet normal 5.78571678168834e-018 -0.970142500145333 0.242535625036329
  outer loop
    vertex 0.0 -0.312500000000002 -7.21911419532262e-016
    vertex 0.437500000000004 -0.250000000000003 0.249999999999999
    vertex 0.0 -0.250000000000003 0.249999999999999
  endloop
endfacet
endsolid Untitled-54c420d5
