solid Untitled-54c4214d
facet normal 0.0 0.0 -1.0
  outer loop
    vertex 0.749999999999998 0.375 -2.24967490244021
    vertex 0.0 -0.375 -2.24967490244021
    vertex 0.0 0.375 -2.24967490244021
  endloop
endfacet
facet normal 0.0 0.0 -1.0
  outer loop
    vertex 0.0 -0.375 -2.24967490244021
    vertex 0.749999999999998 0.375 -2.24967490244021
    vertex 0.749999999999998 0.0 -2.24967490244021
  endloop
endfacet
facet normal 0.0 0.0 -1.0
  outer loop
    vertex 0.0 -0.375 -2.24967490244021
    vertex 0.749999999999998 0.0 -2.24967490244021
    vertex 0.75 -0.375 -2.24967490244021
  endloop
endfacet
facet normal 0.894427190999916 -1.1378269630317e-017 0.447213595499959
  outer loop
    vertex 0.843749999999999 0.468750000000001 0.0
    vertex 0.656249999999999 -0.375 0.374999999999999
    vertex 0.843749999999999 -0.46875 0.0
  endloop
endfacet
facet normal 0.894427190999916 -1.1378269630317e-017 0.447213595499959
  outer loop
    vertex 0.656249999999999 -0.375 0.374999999999999
    vertex 0.843749999999999 0.468750000000001 0.0
    vertex 0.656249999999999 0.375 0.374999999999999
  endloop
endfacet
facet normal -0.0 1.0 -0.0
  outer loop
    vertex 0.0 0.375 -2.40500498833012
    vertex 0.749999999999998 0.375 -2.24967490244021
    vertex 0.749999999999998 0.375 -2.40500498833012
  endloop
endfacet
facet normal -0.0 1.0 -0.0
  outer loop
    vertex 0.749999999999998 0.375 -2.24967490244021
    vertex 0.0 0.375 -2.40500498833012
    vertex 0.0 0.375 -2.24967490244021
  endloop
endfacet
facet normal -1.0 0.0 0.0
  outer loop
    vertex 0.0 0.468750000000001 0.0
    vertex 0.0 -0.375 -2.24967490244021
    vertex 0.0 -0.46875 0.0
  endloop
endfacet
facet normal -1.0 0.0 0.0
  outer loop
    vertex 0.0 -0.375 -2.24967490244021
    vertex 0.0 0.468750000000001 0.0
    vertex 0.0 0.375 -2.24967490244021
  endloop
endfacet
facet normal 0.0 -1.0 0.0
  outer loop
    vertex 0.75 -0.375 -2.24967490244021
    vertex 4.33146851719357e-015 -0.375 -2.40500498833012
    vertex 0.749999999999998 -0.375 -2.40500498833012
  endloop
endfacet
facet normal 0.0 -1.0 0.0
  outer loop
    vertex 4.33146851719357e-015 -0.375 -2.40500498833012
    vertex 0.75 -0.375 -2.24967490244021
    vertex 0.0 -0.375 -2.24967490244021
  endloop
endfacet
facet normal -7.21911419532271e-016 1.74284833986678e-015 -1.0
  outer loop
    vertex 0.749999999999998 0.155330085889912 -2.62467490244021
    vertex 4.33146851719357e-015 -0.155330085889911 -2.62467490244021
    vertex 0.0 0.155330085889909 -2.62467490244021
  endloop
endfacet
facet normal -7.21911419532271e-016 1.74284833986678e-015 -1.0
  outer loop
    vertex 4.33146851719357e-015 -0.155330085889911 -2.62467490244021
    vertex 0.749999999999998 0.155330085889912 -2.62467490244021
    vertex 0.749999999999998 -0.155330085889911 -2.62467490244021
  endloop
endfacet
facet normal -2.89283610751149e-015 0.707106781186547 -0.707106781186548
  outer loop
    vertex 0.749999999999998 0.375 -2.40500498833012
    vertex 0.0 0.155330085889909 -2.62467490244021
    vertex 0.0 0.375 -2.40500498833012
  endloop
endfacet
facet normal -2.89283610751149e-015 0.707106781186547 -0.707106781186548
  outer loop
    vertex 0.0 0.155330085889909 -2.62467490244021
    vertex 0.749999999999998 0.375 -2.40500498833012
    vertex 0.749999999999998 0.155330085889912 -2.62467490244021
  endloop
endfacet
facet normal 4.69135363740712e-018 -0.99913282284316 -0.0416365502588594
  outer loop
    vertex 0.843749999999999 -0.46875 0.0
    vertex 0.0 -0.375 -2.24967490244021
    vertex 0.75 -0.375 -2.24967490244021
  endloop
endfacet
facet normal 4.69135363740712e-018 -0.99913282284316 -0.0416365502588594
  outer loop
    vertex 0.0 -0.375 -2.24967490244021
    vertex 0.843749999999999 -0.46875 0.0
    vertex 0.0 -0.46875 0.0
  endloop
endfacet
facet normal -1.0 -3.76109660225963e-015 -5.39208749649503e-015
  outer loop
    vertex 0.0 0.375 -2.24967490244021
    vertex 4.33146851719357e-015 -0.375 -2.40500498833012
    vertex 0.0 -0.375 -2.24967490244021
  endloop
endfacet
facet normal -1.0 -3.76109660225963e-015 -5.39208749649503e-015
  outer loop
    vertex 4.33146851719357e-015 -0.375 -2.40500498833012
    vertex 0.0 0.375 -2.24967490244021
    vertex 4.33146851719357e-015 -0.155330085889911 -2.62467490244021
  endloop
endfacet
facet normal -1.0 -3.76109660225963e-015 -5.39208749649503e-015
  outer loop
    vertex 4.33146851719357e-015 -0.155330085889911 -2.62467490244021
    vertex 0.0 0.375 -2.24967490244021
    vertex 0.0 0.155330085889909 -2.62467490244021
  endloop
endfacet
facet normal -1.0 -3.76109660225963e-015 -5.39208749649503e-015
  outer loop
    vertex 0.0 0.155330085889909 -2.62467490244021
    vertex 0.0 0.375 -2.24967490244021
    vertex 0.0 0.375 -2.40500498833012
  endloop
endfacet
facet normal 1.0 8.86498970718491e-016 -1.29611611115746e-015
  outer loop
    vertex 0.749999999999998 -0.155330085889911 -2.62467490244021
    vertex 0.75 -0.375 -2.24967490244021
    vertex 0.749999999999998 -0.375 -2.40500498833012
  endloop
endfacet
facet normal 1.0 8.86498970718491e-016 -1.29611611115746e-015
  outer loop
    vertex 0.75 -0.375 -2.24967490244021
    vertex 0.749999999999998 -0.155330085889911 -2.62467490244021
    vertex 0.749999999999998 0.0 -2.24967490244021
  endloop
endfacet
facet normal 1.0 8.86498970718491e-016 -1.29611611115746e-015
  outer loop
    vertex 0.749999999999998 0.0 -2.24967490244021
    vertex 0.749999999999998 -0.155330085889911 -2.62467490244021
    vertex 0.749999999999998 0.155330085889912 -2.62467490244021
  endloop
endfacet
facet normal 1.0 8.86498970718491e-016 -1.29611611115746e-015
  outer loop
    vertex 0.749999999999998 0.0 -2.24967490244021
    vertex 0.749999999999998 0.155330085889912 -2.62467490244021
    vertex 0.749999999999998 0.375 -2.24967490244021
  endloop
endfacet
facet normal 1.0 8.86498970718491e-016 -1.29611611115746e-015
  outer loop
    vertex 0.749999999999998 0.375 -2.24967490244021
    vertex 0.749999999999998 0.155330085889912 -2.62467490244021
    vertex 0.749999999999998 0.375 -2.40500498833012
  endloop
endfacet
facet normal 0.99913282284316 7.44613717217698e-016 -0.0416365502588595
  outer loop
    vertex 0.75 -0.375 -2.24967490244021
    vertex 0.843749999999999 0.468750000000001 0.0
    vertex 0.843749999999999 -0.46875 0.0
  endloop
endfacet
facet normal 0.99913282284316 7.44613717217698e-016 -0.0416365502588595
  outer loop
    vertex 0.843749999999999 0.468750000000001 0.0
    vertex 0.75 -0.375 -2.24967490244021
    vertex 0.749999999999998 0.0 -2.24967490244021
  endloop
endfacet
facet normal 0.99913282284316 7.44613717217698e-016 -0.0416365502588595
  outer loop
    vertex 0.843749999999999 0.468750000000001 0.0
    vertex 0.749999999999998 0.0 -2.24967490244021
    vertex 0.749999999999998 0.375 -2.24967490244021
  endloop
endfacet
facet normal 0.0 -0.707106781186547 -0.707106781186548
  outer loop
    vertex 0.749999999999998 -0.155330085889911 -2.62467490244021
    vertex 4.33146851719357e-015 -0.375 -2.40500498833012
    vertex 4.33146851719357e-015 -0.155330085889911 -2.62467490244021
  endloop
endfacet
facet normal 0.0 -0.707106781186547 -0.707106781186548
  outer loop
    vertex 4.33146851719357e-015 -0.375 -2.40500498833012
    vertex 0.749999999999998 -0.155330085889911 -2.62467490244021
    vertex 0.749999999999998 -0.375 -2.40500498833012
  endloop
endfacet
facet normal 9.14286108711263e-018 0.970142500145331 0.242535625036335
  outer loop
    vertex 0.0 0.375 0.374999999999999
    vertex 0.843749999999999 0.468750000000001 0.0
    vertex 0.0 0.468750000000001 0.0
  endloop
endfacet
facet normal 9.14286108711263e-018 0.970142500145331 0.242535625036335
  outer loop
    vertex 0.843749999999999 0.468750000000001 0.0
    vertex 0.0 0.375 0.374999999999999
    vertex 0.656249999999999 0.375 0.374999999999999
  endloop
endfacet
facet normal -1.0 0.0 0.0
  outer loop
    vertex 0.0 -0.375 0.374999999999999
    vertex 0.0 0.468750000000001 0.0
    vertex 0.0 -0.46875 0.0
  endloop
endfacet
facet normal -1.0 0.0 0.0
  outer loop
    vertex 0.0 0.468750000000001 0.0
    vertex 0.0 -0.375 0.374999999999999
    vertex 0.0 0.375 0.374999999999999
  endloop
endfacet
facet normal -4.69135363740712e-018 0.99913282284316 -0.0416365502588596
  outer loop
    vertex 0.0 0.468750000000001 0.0
    vertex 0.749999999999998 0.375 -2.24967490244021
    vertex 0.0 0.375 -2.24967490244021
  endloop
endfacet
facet normal -4.69135363740712e-018 0.99913282284316 -0.0416365502588596
  outer loop
    vertex 0.749999999999998 0.375 -2.24967490244021
    vertex 0.0 0.468750000000001 0.0
    vertex 0.843749999999999 0.468750000000001 0.0
  endloop
endfacet
facet normal 4.57143054355632e-018 -0.970142500145331 0.242535625036335
  outer loop
    vertex 0.656249999999999 -0.375 0.374999999999999
    vertex 0.0 -0.46875 0.0
    vertex 0.843749999999999 -0.46875 0.0
  endloop
endfacet
facet normal 4.57143054355632e-018 -0.970142500145331 0.242535625036335
  outer loop
    vertex 0.0 -0.46875 0.0
    vertex 0.656249999999999 -0.375 0.374999999999999
    vertex 0.0 -0.375 0.374999999999999
  endloop
endfacet
facet normal 0.0 0.0 -1.0
  outer loop
    vertex 0.843749999999999 0.468750000000001 0.0
    vertex 0.0 -0.46875 0.0
    vertex 0.0 0.468750000000001 0.0
  endloop
endfacet
facet normal 0.0 0.0 -1.0
  outer loop
    vertex 0.0 -0.46875 0.0
    vertex 0.843749999999999 0.468750000000001 0.0
    vertex 0.843749999999999 -0.46875 0.0
  endloop
endfacet
facet normal -0.0 -0.0 1.0
  outer loop
    vertex 0.656249999999999 -0.375 0.374999999999999
    vertex 0.0 0.375 0.374999999999999
    vertex 0.0 -0.375 0.374999999999999
  endloop
endfacet
facet normal -0.0 -0.0 1.0
  outer loop
    vertex 0.0 0.375 0.374999999999999
    vertex 0.656249999999999 -0.375 0.374999999999999
    vertex 0.656249999999999 0.375 0.374999999999999
  endloop
endfacet
endsolid Untitled-54c4214d
