ply
format ascii 1.0
comment Created by Blender 2.73 (sub 0) - www.blender.org, source file: 'upperarm.blend'
element vertex 33
property float x
property float y
property float z
property float nx
property float ny
property float nz
property float s
property float t
element face 38
property list uchar uint vertex_indices
end_header
0.000000 0.312500 0.000000 -0.676321 0.732780 0.074740 0.538808 0.845489
0.500000 0.250000 -1.499783 0.706778 0.706778 -0.029817 0.764750 0.393744
0.000000 0.250000 -1.499783 -0.711814 0.702200 -0.014618 0.878855 0.510222
0.562500 0.312500 -0.000000 0.709342 0.677602 0.193976 0.446609 0.703414
0.000000 -0.250000 0.250000 -0.591327 -0.496261 0.635609 0.138565 0.555582
0.000000 0.312500 0.000000 -0.676321 0.732780 0.074740 0.034827 0.369252
0.000000 -0.312500 -0.000000 -0.676321 -0.732780 0.074740 0.197056 0.493948
0.000000 0.250000 0.250000 -0.591327 0.496261 0.635609 0.000094 0.451498
0.500000 -0.103553 -1.749783 0.630238 -0.297098 -0.717277 0.724829 0.195732
0.000000 -0.250000 -1.603337 -0.630238 -0.717277 -0.297098 0.550192 0.120333
0.000000 -0.103553 -1.749783 -0.630238 -0.297098 -0.717277 0.602425 0.069631
0.500000 -0.250000 -1.603337 0.630238 -0.717277 -0.297098 0.672597 0.246434
0.000000 0.250000 -1.499783 -0.711814 0.702200 -0.014618 0.405051 0.024997
0.000000 -0.250000 -1.499783 -0.711814 -0.702200 -0.014618 0.524766 0.145195
0.000000 -0.103553 -1.749783 -0.630238 -0.297098 -0.717277 0.550192 0.049899
0.000000 0.103553 -1.749783 -0.630238 0.297098 -0.717277 0.500387 0.000094
0.000000 0.250000 -1.603337 -0.630238 0.717277 -0.297098 0.429953 0.000094
0.000000 0.103553 -1.749783 -0.630238 0.297098 -0.717277 0.951383 0.440139
0.500000 0.250000 -1.603337 0.630238 0.717277 -0.297098 0.789723 0.369859
0.500000 0.103553 -1.749783 0.630238 0.297098 -0.717277 0.838246 0.322996
0.000000 0.250000 -1.603337 -0.630238 0.717277 -0.297098 0.902861 0.487002
0.000000 -0.103553 -1.749783 -0.630238 -0.297098 -0.717277 0.999906 0.393276
0.500000 -0.103553 -1.749783 0.630238 -0.297098 -0.717277 0.886768 0.276133
0.500000 -0.250000 -1.499783 0.706778 -0.706778 -0.029817 0.646602 0.271188
0.562500 -0.312500 -0.000000 0.709342 -0.677602 0.193976 0.330858 0.586371
0.500000 0.000000 -1.499783 0.999756 0.000000 -0.020814 0.706159 0.332272
0.437500 -0.250000 0.250000 0.419080 -0.513352 0.748863 0.263467 0.650822
0.437500 0.250000 0.250000 0.419080 0.513352 0.748863 0.388250 0.763775
0.000000 0.250000 0.250000 -0.591327 0.496261 0.635609 0.289417 0.872960
0.000000 -0.250000 0.250000 -0.591327 -0.496261 0.635609 0.164634 0.760007
0.000000 0.250000 0.250000 -0.591327 0.496261 0.635609 0.464294 0.890280
0.500000 -0.103553 -1.749783 0.630238 -0.297098 -0.717277 0.743304 0.248002
0.500000 0.103553 -1.749783 0.630238 0.297098 -0.717277 0.791551 0.299548
3 0 1 2
3 1 0 3
3 4 5 6
3 5 4 7
3 8 9 10
3 9 8 11
3 12 9 13
3 9 12 14
3 14 12 15
3 15 12 16
3 17 18 19
3 18 17 20
3 19 21 17
3 21 19 22
3 23 3 24
3 3 23 25
3 3 25 1
3 5 13 6
3 13 5 12
3 20 1 18
3 1 20 2
3 23 9 11
3 9 23 13
3 3 26 24
3 26 3 27
3 26 28 29
3 28 26 27
3 0 27 3
3 27 0 30
3 24 13 23
3 13 24 6
3 31 23 11
3 23 31 25
3 25 31 32
3 25 32 1
3 1 32 18
3 26 6 24
3 6 26 4
