ply
format ascii 1.0
comment Created by Blender 2.73 (sub 0) - www.blender.org, source file: ''
element vertex 36
property float x
property float y
property float z
property float nx
property float ny
property float nz
property float s
property float t
element face 38
property list uchar uint vertex_indices
end_header
0.843750 0.468750 0.000000 0.709342 0.677602 0.193976 0.656569 0.728445
0.656250 -0.375000 0.375000 0.419080 -0.513352 0.748863 0.460431 0.842280
0.843750 -0.468750 0.000000 0.709342 -0.677602 0.193976 0.431388 0.743035
0.656250 0.375000 0.375000 0.419080 0.513352 0.748863 0.640576 0.830608
0.000000 0.375000 -2.405005 -0.630238 0.717277 -0.297098 0.778783 0.121245
0.750000 0.375000 -2.249675 0.706778 0.706778 -0.029817 0.600167 0.179496
0.750000 0.375000 -2.405005 0.630238 0.717277 -0.297098 0.596882 0.141467
0.000000 0.375000 -2.249675 -0.711814 0.702200 -0.014618 0.782995 0.158519
0.000000 0.468750 0.000000 -0.676321 0.732780 0.074740 0.000093 0.730039
0.000000 -0.375000 -2.249675 -0.711814 -0.702200 -0.014618 0.230881 0.189828
0.000000 -0.468750 0.000000 -0.676321 -0.732780 0.074740 0.226820 0.740860
0.000000 0.375000 -2.249675 -0.711814 0.702200 -0.014618 0.047696 0.184158
0.750000 -0.375000 -2.249675 0.706778 -0.706778 -0.029817 0.415964 0.190333
0.000000 -0.375000 -2.405005 -0.630238 -0.717277 -0.297098 0.231471 0.152052
0.750000 -0.375000 -2.405005 0.630238 -0.717277 -0.297098 0.414902 0.152052
0.750000 0.155330 -2.624675 0.630238 0.297098 -0.717277 0.414902 0.000093
0.000000 -0.155330 -2.624675 -0.630238 -0.297098 -0.717277 0.231471 0.076073
0.000000 0.155330 -2.624675 -0.630238 0.297098 -0.717277 0.231471 0.000093
0.750000 -0.155330 -2.624675 0.630238 -0.297098 -0.717277 0.414902 0.076073
0.000000 0.155330 -2.624675 -0.630238 0.297098 -0.717277 0.770407 0.045900
0.750000 0.155330 -2.624675 0.630238 0.297098 -0.717277 0.588506 0.066122
0.000000 -0.155330 -2.624675 -0.630238 -0.297098 -0.717277 0.179664 0.096900
0.000000 0.155330 -2.624675 -0.630238 0.297098 -0.717277 0.104032 0.094534
0.000000 0.375000 -2.405005 -0.630238 0.717277 -0.297098 0.048879 0.146342
0.750000 -0.155330 -2.624675 0.630238 -0.297098 -0.717277 0.465881 0.096963
0.750000 0.000000 -2.249675 0.999756 0.000000 -0.020814 0.508232 0.185492
0.750000 0.155330 -2.624675 0.630238 0.297098 -0.717277 0.540033 0.092670
0.000000 0.375000 0.375000 -0.591327 0.496261 0.635609 0.870558 0.792132
0.000000 0.468750 0.000000 -0.676321 0.732780 0.074740 0.857553 0.700057
0.656250 0.375000 0.375000 0.419080 0.513352 0.748863 0.714237 0.814211
0.000000 -0.375000 0.375000 -0.591327 -0.496261 0.635609 0.199819 0.830469
0.000000 0.375000 0.375000 -0.591327 0.496261 0.635609 0.018438 0.821812
0.656250 -0.375000 0.375000 0.419080 -0.513352 0.748863 0.384932 0.836269
0.000000 -0.375000 0.375000 -0.591327 -0.496261 0.635609 0.225824 0.834577
0.000000 0.375000 0.375000 -0.591327 0.496261 0.635609 0.650789 0.988235
0.000000 -0.375000 0.375000 -0.591327 -0.496261 0.635609 0.470644 0.999907
3 0 1 2
3 1 0 3
3 4 5 6
3 5 4 7
3 8 9 10
3 9 8 11
3 12 13 14
3 13 12 9
3 15 16 17
3 16 15 18
3 6 19 4
3 19 6 20
3 2 9 12
3 9 2 10
3 11 13 9
3 13 11 21
3 21 11 22
3 22 11 23
3 24 12 14
3 12 24 25
3 25 24 26
3 25 26 5
3 5 26 6
3 12 0 2
3 0 12 25
3 0 25 5
3 18 13 16
3 13 18 14
3 27 0 28
3 0 27 29
3 30 8 10
3 8 30 31
3 28 5 7
3 5 28 0
3 32 10 2
3 10 32 33
3 1 34 35
3 34 1 3
